<mxfile host="app.diagrams.net" modified="2023-08-22T08:05:57.208Z" agent="Mozilla/5.0 (Windows NT 10.0; Win64; x64) AppleWebKit/537.36 (KHTML, like Gecko) Chrome/115.0.0.0 Safari/537.36 Edg/115.0.1901.203" etag="y5zGt3PRo2xF84PjhGZy" version="21.6.8" type="github">
  <diagram id="prtHgNgQTEPvFCAcTncT" name="Page-1">
    <mxGraphModel dx="1166" dy="775" grid="1" gridSize="10" guides="1" tooltips="1" connect="1" arrows="1" fold="1" page="1" pageScale="1" pageWidth="827" pageHeight="1169" math="0" shadow="0">
      <root>
        <mxCell id="0" />
        <mxCell id="1" parent="0" />
        <UserObject label="" tags="背景" id="GKsSiw1RwcMN33Dnaw3F-215">
          <mxCell style="vsdxID=33;fillColor=none;gradientColor=none;points=[];labelBackgroundColor=none;rounded=0;strokeColor=none;html=1;whiteSpace=wrap;" vertex="1" parent="1">
            <mxGeometry x="193" y="514" width="182" height="165" as="geometry" />
          </mxCell>
        </UserObject>
        <UserObject label="" tags="背景" id="GKsSiw1RwcMN33Dnaw3F-216">
          <mxCell style="vsdxID=254;fillColor=none;gradientColor=none;points=[];labelBackgroundColor=none;rounded=0;strokeColor=none;html=1;whiteSpace=wrap;" vertex="1" parent="1">
            <mxGeometry x="171" y="717" width="182" height="147" as="geometry" />
          </mxCell>
        </UserObject>
        <mxCell id="GKsSiw1RwcMN33Dnaw3F-217" style="vsdxID=255;fillColor=none;gradientColor=none;points=[];labelBackgroundColor=none;rounded=0;strokeColor=none;html=1;whiteSpace=wrap;" vertex="1" parent="GKsSiw1RwcMN33Dnaw3F-216">
          <mxGeometry x="-3" y="-32" width="182" height="147" as="geometry" />
        </mxCell>
        <mxCell id="GKsSiw1RwcMN33Dnaw3F-218" value="&lt;div style=&quot;font-size: 1px&quot;&gt;&lt;font style=&quot;font-size:11.29px;font-family:SimSun;color:#000000;direction:ltr;letter-spacing:0px;line-height:120%;opacity:1&quot;&gt;数据融合&lt;br/&gt;&lt;/font&gt;&lt;/div&gt;" style="verticalAlign=middle;align=center;overflow=width;vsdxID=256;fillColor=#FFFFFF;gradientColor=none;shape=stencil(nZBLDoAgDERP0z3SIyjew0SURgSD+Lu9kMZoXLhwN9O+tukAlrNpJg1SzDH4QW/URgNYgZTkjA4UkwJUgGXng+6DX1zLfmoymdXo17xh5zmRJ6Q42BWCfc2oJfdAr+Yv+AP9Cb7OJ3H/2JG1HNGz/84klThPVCc=);points=[[1,0.5,0],[0.5,0,0],[0.5,0.5,0],[0.5,0.5,0]];labelBackgroundColor=none;rounded=0;html=1;whiteSpace=wrap;" vertex="1" parent="GKsSiw1RwcMN33Dnaw3F-217">
          <mxGeometry y="48" width="76" height="28" as="geometry" />
        </mxCell>
        <mxCell id="GKsSiw1RwcMN33Dnaw3F-219" style="vsdxID=257;fillColor=none;gradientColor=none;points=[];labelBackgroundColor=none;rounded=0;strokeColor=none;html=1;whiteSpace=wrap;" vertex="1" parent="GKsSiw1RwcMN33Dnaw3F-217">
          <mxGeometry x="111" y="32" width="76" height="147" as="geometry" />
        </mxCell>
        <mxCell id="GKsSiw1RwcMN33Dnaw3F-220" value="&lt;div style=&quot;font-size: 1px&quot;&gt;&lt;font style=&quot;font-size:11.29px;font-family:SimSun;color:#000000;direction:ltr;letter-spacing:0px;line-height:120%;opacity:1&quot;&gt;原始数据&lt;br/&gt;&lt;/font&gt;&lt;/div&gt;" style="verticalAlign=middle;align=center;overflow=width;vsdxID=258;fillColor=#FFFFFF;gradientColor=none;shape=stencil(nZBLDoAgDERP0z3SIyjew0SURgSD+Lu9kMZoXLhwN9O+tukAlrNpJg1SzDH4QW/URgNYgZTkjA4UkwJUgGXng+6DX1zLfmoymdXo17xh5zmRJ6Q42BWCfc2oJfdAr+Yv+AP9Cb7OJ3H/2JG1HNGz/84klThPVCc=);points=[[1,0.5,0],[0.5,0,0],[0.5,0.5,0],[0.5,0.5,0]];labelBackgroundColor=none;rounded=0;html=1;whiteSpace=wrap;" vertex="1" parent="GKsSiw1RwcMN33Dnaw3F-219">
          <mxGeometry y="-4" width="76" height="28" as="geometry" />
        </mxCell>
        <mxCell id="GKsSiw1RwcMN33Dnaw3F-221" value="&lt;div style=&quot;font-size: 1px&quot;&gt;&lt;font style=&quot;font-size:11.29px;font-family:SimSun;color:#000000;direction:ltr;letter-spacing:0px;line-height:120%;opacity:1&quot;&gt;点云数据&lt;br/&gt;&lt;/font&gt;&lt;/div&gt;" style="verticalAlign=middle;align=center;overflow=width;vsdxID=259;fillColor=#FFFFFF;gradientColor=none;shape=stencil(nZBLDoAgDERP0z3SIyjew0SURgSD+Lu9kMZoXLhwN9O+tukAlrNpJg1SzDH4QW/URgNYgZTkjA4UkwJUgGXng+6DX1zLfmoymdXo17xh5zmRJ6Q42BWCfc2oJfdAr+Yv+AP9Cb7OJ3H/2JG1HNGz/84klThPVCc=);points=[[1,0.5,0],[0.5,0,0],[0.5,0.5,0],[0.5,0.5,0]];labelBackgroundColor=none;rounded=0;html=1;whiteSpace=wrap;" vertex="1" parent="GKsSiw1RwcMN33Dnaw3F-219">
          <mxGeometry y="37" width="76" height="28" as="geometry" />
        </mxCell>
        <UserObject label="" tags="连接线" id="GKsSiw1RwcMN33Dnaw3F-222">
          <mxCell style="vsdxID=262;edgeStyle=none;startArrow=none;endArrow=none;startSize=9;endSize=9;spacingTop=0;spacingBottom=0;spacingLeft=0;spacingRight=0;verticalAlign=middle;html=1;labelBackgroundColor=#ffffff;rounded=0;exitX=0.013157894736842105;exitY=0.5714285714285714;exitDx=0;exitDy=0;exitPerimeter=0;entryX=0.013157894736842105;entryY=0.5714285714285714;entryDx=0;entryDy=0;entryPerimeter=0;" edge="1" parent="GKsSiw1RwcMN33Dnaw3F-219" source="GKsSiw1RwcMN33Dnaw3F-220" target="GKsSiw1RwcMN33Dnaw3F-221">
            <mxGeometry relative="1" as="geometry">
              <mxPoint x="10" y="-1" as="offset" />
              <Array as="points">
                <mxPoint x="-14" y="12" />
                <mxPoint x="-14" y="53" />
              </Array>
            </mxGeometry>
          </mxCell>
        </UserObject>
        <UserObject label="" tags="背景" id="GKsSiw1RwcMN33Dnaw3F-223">
          <mxCell style="vsdxID=274;fillColor=none;gradientColor=none;points=[];labelBackgroundColor=none;rounded=0;strokeColor=none;html=1;whiteSpace=wrap;" vertex="1" parent="1">
            <mxGeometry x="173" y="813" width="182" height="93" as="geometry" />
          </mxCell>
        </UserObject>
        <mxCell id="GKsSiw1RwcMN33Dnaw3F-224" style="vsdxID=266;fillColor=none;gradientColor=none;points=[];labelBackgroundColor=none;rounded=0;strokeColor=none;html=1;whiteSpace=wrap;" vertex="1" parent="GKsSiw1RwcMN33Dnaw3F-223">
          <mxGeometry y="10" width="182" height="82" as="geometry" />
        </mxCell>
        <mxCell id="GKsSiw1RwcMN33Dnaw3F-225" style="vsdxID=267;fillColor=none;gradientColor=none;points=[];labelBackgroundColor=none;rounded=0;strokeColor=none;html=1;whiteSpace=wrap;" vertex="1" parent="GKsSiw1RwcMN33Dnaw3F-224">
          <mxGeometry x="106" width="76" height="82" as="geometry" />
        </mxCell>
        <mxCell id="GKsSiw1RwcMN33Dnaw3F-226" value="&lt;div style=&quot;font-size: 1px&quot;&gt;&lt;font style=&quot;font-size:11.29px;font-family:SimSun;color:#000000;direction:ltr;letter-spacing:0px;line-height:120%;opacity:1&quot;&gt;点云展示&lt;br/&gt;&lt;/font&gt;&lt;/div&gt;" style="verticalAlign=middle;align=center;overflow=width;vsdxID=268;fillColor=#FFFFFF;gradientColor=none;shape=stencil(nZBLDoAgDERP0z3SIyjew0SURgSD+Lu9kMZoXLhwN9O+tukAlrNpJg1SzDH4QW/URgNYgZTkjA4UkwJUgGXng+6DX1zLfmoymdXo17xh5zmRJ6Q42BWCfc2oJfdAr+Yv+AP9Cb7OJ3H/2JG1HNGz/84klThPVCc=);points=[[1,0.5,0],[0.5,0,0],[0.5,0.5,0],[0.5,0.5,0]];labelBackgroundColor=none;rounded=0;html=1;whiteSpace=wrap;" vertex="1" parent="GKsSiw1RwcMN33Dnaw3F-225">
          <mxGeometry y="-25" width="76" height="28" as="geometry" />
        </mxCell>
        <mxCell id="GKsSiw1RwcMN33Dnaw3F-227" value="&lt;div style=&quot;font-size: 1px&quot;&gt;&lt;font style=&quot;font-size:11.29px;font-family:SimSun;color:#000000;direction:ltr;letter-spacing:0px;line-height:120%;opacity:1&quot;&gt;图像展示&lt;br/&gt;&lt;/font&gt;&lt;/div&gt;" style="verticalAlign=middle;align=center;overflow=width;vsdxID=269;fillColor=#FFFFFF;gradientColor=none;shape=stencil(nZBLDoAgDERP0z3SIyjew0SURgSD+Lu9kMZoXLhwN9O+tukAlrNpJg1SzDH4QW/URgNYgZTkjA4UkwJUgGXng+6DX1zLfmoymdXo17xh5zmRJ6Q42BWCfc2oJfdAr+Yv+AP9Cb7OJ3H/2JG1HNGz/84klThPVCc=);points=[[1,0.5,0],[0.5,0,0],[0.5,0.5,0],[0.5,0.5,0]];labelBackgroundColor=none;rounded=0;html=1;whiteSpace=wrap;" vertex="1" parent="GKsSiw1RwcMN33Dnaw3F-225">
          <mxGeometry y="20" width="76" height="28" as="geometry" />
        </mxCell>
        <mxCell id="GKsSiw1RwcMN33Dnaw3F-228" value="&lt;div style=&quot;font-size: 1px&quot;&gt;&lt;font style=&quot;font-size:11.29px;font-family:SimSun;color:#000000;direction:ltr;letter-spacing:0px;line-height:120%;opacity:1&quot;&gt;图像点云关联展示&lt;br/&gt;&lt;/font&gt;&lt;/div&gt;" style="verticalAlign=middle;align=center;overflow=width;vsdxID=270;fillColor=#FFFFFF;gradientColor=none;shape=stencil(nZBLDoAgDERP0z3SIyjew0SURgSD+Lu9kMZoXLhwN9O+tukAlrNpJg1SzDH4QW/URgNYgZTkjA4UkwJUgGXng+6DX1zLfmoymdXo17xh5zmRJ6Q42BWCfc2oJfdAr+Yv+AP9Cb7OJ3H/2JG1HNGz/84klThPVCc=);points=[[1,0.5,0],[0.5,0,0],[0.5,0.5,0],[0.5,0.5,0]];labelBackgroundColor=none;rounded=0;html=1;whiteSpace=wrap;" vertex="1" parent="GKsSiw1RwcMN33Dnaw3F-225">
          <mxGeometry y="62" width="76" height="28" as="geometry" />
        </mxCell>
        <UserObject label="" tags="连接线" id="GKsSiw1RwcMN33Dnaw3F-231">
          <mxCell style="vsdxID=273;edgeStyle=none;startArrow=none;endArrow=none;startSize=9;endSize=9;spacingTop=0;spacingBottom=0;spacingLeft=0;spacingRight=0;verticalAlign=middle;html=1;labelBackgroundColor=#ffffff;rounded=0;exitX=0;exitY=0.5;exitDx=0;exitDy=0;exitPerimeter=0;entryX=0;entryY=0.5;entryDx=0;entryDy=0;entryPerimeter=0;" edge="1" parent="GKsSiw1RwcMN33Dnaw3F-225" source="GKsSiw1RwcMN33Dnaw3F-228" target="GKsSiw1RwcMN33Dnaw3F-227">
            <mxGeometry relative="1" as="geometry">
              <mxPoint x="10" as="offset" />
              <Array as="points">
                <mxPoint x="-15" y="76" />
                <mxPoint x="-15" y="34.05" />
              </Array>
            </mxGeometry>
          </mxCell>
        </UserObject>
        <mxCell id="GKsSiw1RwcMN33Dnaw3F-229" value="&lt;div style=&quot;font-size: 1px&quot;&gt;&lt;font style=&quot;font-size:11.29px;font-family:SimSun;color:#000000;direction:ltr;letter-spacing:0px;line-height:120%;opacity:1&quot;&gt;数据可视化&lt;br/&gt;&lt;/font&gt;&lt;/div&gt;" style="verticalAlign=middle;align=center;overflow=width;vsdxID=271;fillColor=#FFFFFF;gradientColor=none;shape=stencil(nZBLDoAgDERP0z3SIyjew0SURgSD+Lu9kMZoXLhwN9O+tukAlrNpJg1SzDH4QW/URgNYgZTkjA4UkwJUgGXng+6DX1zLfmoymdXo17xh5zmRJ6Q42BWCfc2oJfdAr+Yv+AP9Cb7OJ3H/2JG1HNGz/84klThPVCc=);points=[[1,0.5,0],[0.5,0,0],[0.5,0.5,0],[0.5,0.5,0]];labelBackgroundColor=none;rounded=0;html=1;whiteSpace=wrap;" vertex="1" parent="GKsSiw1RwcMN33Dnaw3F-224">
          <mxGeometry y="20" width="76" height="27" as="geometry" />
        </mxCell>
        <UserObject label="" tags="连接线" id="GKsSiw1RwcMN33Dnaw3F-230">
          <mxCell style="vsdxID=272;edgeStyle=none;startArrow=none;endArrow=none;startSize=9;endSize=9;spacingTop=0;spacingBottom=0;spacingLeft=0;spacingRight=0;verticalAlign=middle;html=1;labelBackgroundColor=#ffffff;rounded=0;exitX=1;exitY=0.5185185185185185;exitDx=0;exitDy=0;exitPerimeter=0;entryX=0;entryY=0.5;entryDx=0;entryDy=0;entryPerimeter=0;" edge="1" parent="GKsSiw1RwcMN33Dnaw3F-224" source="GKsSiw1RwcMN33Dnaw3F-229" target="GKsSiw1RwcMN33Dnaw3F-226">
            <mxGeometry relative="1" as="geometry">
              <mxPoint y="-1" as="offset" />
              <Array as="points">
                <mxPoint x="91" y="34" />
                <mxPoint x="91" y="-10.57" />
              </Array>
            </mxGeometry>
          </mxCell>
        </UserObject>
        <UserObject label="&lt;div style=&quot;font-size: 1px&quot;&gt;&lt;font style=&quot;font-size:11.29px;font-family:SimSun;color:#000000;direction:ltr;letter-spacing:0px;line-height:120%;opacity:1&quot;&gt;雷达数据、图像数据、里程定位、惯组数据、编码器数据、GNSS数据、融合数据&lt;br/&gt;&lt;/font&gt;&lt;/div&gt;" tags="背景" id="GKsSiw1RwcMN33Dnaw3F-232">
          <mxCell style="verticalAlign=middle;align=center;overflow=width;vsdxID=275;fillColor=#FFFFFF;gradientColor=none;shape=stencil(nZBLDoAgDERP0z3SIyjew0SURgSD+Lu9kMZoXLhwN9O+tukAlrNpJg1SzDH4QW/URgNYgZTkjA4UkwJUgGXng+6DX1zLfmoymdXo17xh5zmRJ6Q42BWCfc2oJfdAr+Yv+AP9Cb7OJ3H/2JG1HNGz/84klThPVCc=);dashed=1;dashPattern=2.00 2.00;strokeColor=#000000;points=[[1,0.5,0],[0.5,0,0],[0.5,0.5,0],[0.5,0.5,0]];labelBackgroundColor=none;rounded=0;html=1;whiteSpace=wrap;" vertex="1" parent="1">
            <mxGeometry x="370" y="713" width="232" height="34" as="geometry" />
          </mxCell>
        </UserObject>
        <UserObject label="&lt;div style=&quot;font-size: 1px&quot;&gt;&lt;font style=&quot;font-size:11.29px;font-family:SimSun;color:#000000;direction:ltr;letter-spacing:0px;line-height:120%;opacity:1&quot;&gt;瓦片数据、索引数据等&lt;br/&gt;&lt;/font&gt;&lt;/div&gt;" tags="背景" id="GKsSiw1RwcMN33Dnaw3F-233">
          <mxCell style="verticalAlign=middle;align=center;overflow=width;vsdxID=277;fillColor=#FFFFFF;gradientColor=none;shape=stencil(nZBLDoAgDERP0z3SIyjew0SURgSD+Lu9kMZoXLhwN9O+tukAlrNpJg1SzDH4QW/URgNYgZTkjA4UkwJUgGXng+6DX1zLfmoymdXo17xh5zmRJ6Q42BWCfc2oJfdAr+Yv+AP9Cb7OJ3H/2JG1HNGz/84klThPVCc=);dashed=1;dashPattern=2.00 2.00;strokeColor=#000000;points=[[1,0.5,0],[0.5,0,0],[0.5,0.5,0],[0.5,0.5,0]];labelBackgroundColor=none;rounded=0;html=1;whiteSpace=wrap;" vertex="1" parent="1">
            <mxGeometry x="370" y="755" width="232" height="34" as="geometry" />
          </mxCell>
        </UserObject>
        <UserObject label="&lt;div style=&quot;font-size: 1px&quot;&gt;&lt;font style=&quot;font-size:11.29px;font-family:SimSun;color:#000000;direction:ltr;letter-spacing:0px;line-height:120%;opacity:1&quot;&gt;三维展示、数据测量、断面展示&lt;br/&gt;&lt;/font&gt;&lt;/div&gt;" tags="背景" id="GKsSiw1RwcMN33Dnaw3F-234">
          <mxCell style="verticalAlign=middle;align=center;overflow=width;vsdxID=283;fillColor=#FFFFFF;gradientColor=none;shape=stencil(nZBLDoAgDERP0z3SIyjew0SURgSD+Lu9kMZoXLhwN9O+tukAlrNpJg1SzDH4QW/URgNYgZTkjA4UkwJUgGXng+6DX1zLfmoymdXo17xh5zmRJ6Q42BWCfc2oJfdAr+Yv+AP9Cb7OJ3H/2JG1HNGz/84klThPVCc=);dashed=1;dashPattern=2.00 2.00;strokeColor=#000000;points=[[1,0.5,0],[0.5,0,0],[0.5,0.5,0],[0.5,0.5,0]];labelBackgroundColor=none;rounded=0;html=1;whiteSpace=wrap;" vertex="1" parent="1">
            <mxGeometry x="370" y="794" width="232" height="34" as="geometry" />
          </mxCell>
        </UserObject>
        <UserObject label="&lt;div style=&quot;font-size: 1px&quot;&gt;&lt;font style=&quot;font-size:11.29px;font-family:SimSun;color:#000000;direction:ltr;letter-spacing:0px;line-height:120%;opacity:1&quot;&gt;多图片展示、缺陷展示、图片缩放&lt;br/&gt;&lt;/font&gt;&lt;/div&gt;" tags="背景" id="GKsSiw1RwcMN33Dnaw3F-235">
          <mxCell style="verticalAlign=middle;align=center;overflow=width;vsdxID=285;fillColor=#FFFFFF;gradientColor=none;shape=stencil(nZBLDoAgDERP0z3SIyjew0SURgSD+Lu9kMZoXLhwN9O+tukAlrNpJg1SzDH4QW/URgNYgZTkjA4UkwJUgGXng+6DX1zLfmoymdXo17xh5zmRJ6Q42BWCfc2oJfdAr+Yv+AP9Cb7OJ3H/2JG1HNGz/84klThPVCc=);dashed=1;dashPattern=2.00 2.00;strokeColor=#000000;points=[[1,0.5,0],[0.5,0,0],[0.5,0.5,0],[0.5,0.5,0]];labelBackgroundColor=none;rounded=0;html=1;whiteSpace=wrap;" vertex="1" parent="1">
            <mxGeometry x="370" y="839" width="232" height="34" as="geometry" />
          </mxCell>
        </UserObject>
        <UserObject label="&lt;div style=&quot;font-size: 1px&quot;&gt;&lt;font style=&quot;font-size:11.29px;font-family:SimSun;color:#000000;direction:ltr;letter-spacing:0px;line-height:120%;opacity:1&quot;&gt;静态同断面展示、动态同断面展示&lt;br/&gt;&lt;/font&gt;&lt;/div&gt;" tags="背景" id="GKsSiw1RwcMN33Dnaw3F-236">
          <mxCell style="verticalAlign=middle;align=center;overflow=width;vsdxID=287;fillColor=#FFFFFF;gradientColor=none;shape=stencil(nZBLDoAgDERP0z3SIyjew0SURgSD+Lu9kMZoXLhwN9O+tukAlrNpJg1SzDH4QW/URgNYgZTkjA4UkwJUgGXng+6DX1zLfmoymdXo17xh5zmRJ6Q42BWCfc2oJfdAr+Yv+AP9Cb7OJ3H/2JG1HNGz/84klThPVCc=);dashed=1;dashPattern=2.00 2.00;strokeColor=#000000;points=[[1,0.5,0],[0.5,0,0],[0.5,0.5,0],[0.5,0.5,0]];labelBackgroundColor=none;rounded=0;html=1;whiteSpace=wrap;" vertex="1" parent="1">
            <mxGeometry x="370" y="882" width="232" height="34" as="geometry" />
          </mxCell>
        </UserObject>
        <UserObject label="" tags="连接线" id="GKsSiw1RwcMN33Dnaw3F-237">
          <mxCell style="vsdxID=299;edgeStyle=none;startArrow=none;endArrow=none;startSize=9;endSize=9;spacingTop=0;spacingBottom=0;spacingLeft=0;spacingRight=0;verticalAlign=middle;html=1;labelBackgroundColor=#ffffff;rounded=0;" edge="1" parent="1">
            <mxGeometry relative="1" as="geometry">
              <mxPoint x="-10" as="offset" />
              <Array as="points">
                <mxPoint x="261" y="325" />
                <mxPoint x="261" y="283.97" />
              </Array>
              <mxPoint x="276" y="325" as="sourcePoint" />
              <mxPoint x="276" y="284" as="targetPoint" />
            </mxGeometry>
          </mxCell>
        </UserObject>
        <UserObject label="" tags="连接线" id="GKsSiw1RwcMN33Dnaw3F-238">
          <mxCell style="vsdxID=302;edgeStyle=none;startArrow=none;endArrow=none;startSize=9;endSize=9;spacingTop=0;spacingBottom=0;spacingLeft=0;spacingRight=0;verticalAlign=middle;html=1;labelBackgroundColor=#ffffff;rounded=0;" edge="1" parent="1">
            <mxGeometry relative="1" as="geometry">
              <mxPoint x="10" y="-1" as="offset" />
              <Array as="points">
                <mxPoint x="260" y="367" />
                <mxPoint x="260" y="324.31" />
              </Array>
              <mxPoint x="275" y="367" as="sourcePoint" />
              <mxPoint x="275" y="325" as="targetPoint" />
            </mxGeometry>
          </mxCell>
        </UserObject>
        <UserObject label="" tags="连接线" id="GKsSiw1RwcMN33Dnaw3F-239">
          <mxCell style="vsdxID=308;edgeStyle=none;startArrow=none;endArrow=none;startSize=9;endSize=9;spacingTop=0;spacingBottom=0;spacingLeft=0;spacingRight=0;verticalAlign=middle;html=1;labelBackgroundColor=#ffffff;rounded=0;" edge="1" parent="1">
            <mxGeometry relative="1" as="geometry">
              <mxPoint as="offset" />
              <Array as="points">
                <mxPoint x="143.17" y="858" />
              </Array>
              <mxPoint x="174" y="858" as="sourcePoint" />
              <mxPoint x="143" y="749" as="targetPoint" />
            </mxGeometry>
          </mxCell>
        </UserObject>
        <mxCell id="GKsSiw1RwcMN33Dnaw3F-240" vertex="1" parent="1">
          <mxGeometry x="265" y="749" as="geometry" />
        </mxCell>
        <UserObject label="" tags="连接线" id="GKsSiw1RwcMN33Dnaw3F-241">
          <mxCell style="vsdxID=306;edgeStyle=none;startArrow=none;endArrow=none;startSize=9;endSize=9;spacingTop=0;spacingBottom=0;spacingLeft=0;spacingRight=0;verticalAlign=middle;html=1;labelBackgroundColor=#ffffff;rounded=0;exitX=1.013157894736842;exitY=0.5714285714285714;exitDx=0;exitDy=0;exitPerimeter=0;" edge="1" parent="1" source="GKsSiw1RwcMN33Dnaw3F-218" target="GKsSiw1RwcMN33Dnaw3F-240">
            <mxGeometry relative="1" as="geometry">
              <mxPoint as="offset" />
              <Array as="points" />
            </mxGeometry>
          </mxCell>
        </UserObject>
        <UserObject label="" tags="连接线" id="GKsSiw1RwcMN33Dnaw3F-242">
          <mxCell style="vsdxID=305;edgeStyle=none;startArrow=none;endArrow=none;startSize=9;endSize=9;spacingTop=0;spacingBottom=0;spacingLeft=0;spacingRight=0;verticalAlign=middle;html=1;labelBackgroundColor=#ffffff;rounded=0;exitX=1.0263157894736843;exitY=0.6071428571428571;exitDx=0;exitDy=0;exitPerimeter=0;entryX=0;entryY=0.5;entryDx=0;entryDy=0;entryPerimeter=0;" edge="1" parent="1" source="GKsSiw1RwcMN33Dnaw3F-221" target="GKsSiw1RwcMN33Dnaw3F-233">
            <mxGeometry relative="1" as="geometry">
              <mxPoint x="3" as="offset" />
              <Array as="points">
                <mxPoint x="364.5" y="771" />
                <mxPoint x="364.5" y="771.31" />
              </Array>
            </mxGeometry>
          </mxCell>
        </UserObject>
        <UserObject label="" tags="连接线" id="GKsSiw1RwcMN33Dnaw3F-243">
          <mxCell style="vsdxID=304;edgeStyle=none;startArrow=none;endArrow=none;startSize=9;endSize=9;spacingTop=0;spacingBottom=0;spacingLeft=0;spacingRight=0;verticalAlign=middle;html=1;labelBackgroundColor=#ffffff;rounded=0;exitX=1.0263157894736843;exitY=0.6071428571428571;exitDx=0;exitDy=0;exitPerimeter=0;entryX=0;entryY=0.5;entryDx=0;entryDy=0;entryPerimeter=0;" edge="1" parent="1" source="GKsSiw1RwcMN33Dnaw3F-220" target="GKsSiw1RwcMN33Dnaw3F-232">
            <mxGeometry relative="1" as="geometry">
              <mxPoint x="3" as="offset" />
              <Array as="points">
                <mxPoint x="364.5" y="730" />
                <mxPoint x="364.5" y="730.01" />
              </Array>
            </mxGeometry>
          </mxCell>
        </UserObject>
        <mxCell id="GKsSiw1RwcMN33Dnaw3F-244" vertex="1" parent="1">
          <mxGeometry x="260" y="340" as="geometry" />
        </mxCell>
        <UserObject label="" tags="连接线" id="GKsSiw1RwcMN33Dnaw3F-245">
          <mxCell style="vsdxID=303;edgeStyle=none;startArrow=none;endArrow=none;startSize=9;endSize=9;spacingTop=0;spacingBottom=0;spacingLeft=0;spacingRight=0;verticalAlign=middle;html=1;labelBackgroundColor=#ffffff;rounded=0;exitX=1.013157894736842;exitY=0.56;exitDx=0;exitDy=0;exitPerimeter=0;" edge="1" parent="1" source="GKsSiw1RwcMN33Dnaw3F-131" target="GKsSiw1RwcMN33Dnaw3F-244">
            <mxGeometry relative="1" as="geometry">
              <mxPoint x="3" as="offset" />
              <Array as="points">
                <mxPoint x="260.16" y="340" />
              </Array>
            </mxGeometry>
          </mxCell>
        </UserObject>
        <mxCell id="GKsSiw1RwcMN33Dnaw3F-246" vertex="1" parent="1">
          <mxGeometry x="260" y="106" as="geometry" />
        </mxCell>
        <UserObject label="" tags="连接线" id="GKsSiw1RwcMN33Dnaw3F-247">
          <mxCell style="vsdxID=296;edgeStyle=none;startArrow=none;endArrow=none;startSize=9;endSize=9;spacingTop=0;spacingBottom=0;spacingLeft=0;spacingRight=0;verticalAlign=middle;html=1;labelBackgroundColor=#ffffff;rounded=0;exitX=1.013157894736842;exitY=0.5357142857142857;exitDx=0;exitDy=0;exitPerimeter=0;" edge="1" parent="1" source="GKsSiw1RwcMN33Dnaw3F-145" target="GKsSiw1RwcMN33Dnaw3F-246">
            <mxGeometry relative="1" as="geometry">
              <mxPoint x="2" as="offset" />
              <Array as="points">
                <mxPoint x="260.59" y="103" />
              </Array>
            </mxGeometry>
          </mxCell>
        </UserObject>
        <UserObject label="" tags="连接线" id="GKsSiw1RwcMN33Dnaw3F-248">
          <mxCell style="vsdxID=291;edgeStyle=none;startArrow=none;endArrow=none;startSize=9;endSize=9;spacingTop=0;spacingBottom=0;spacingLeft=0;spacingRight=0;verticalAlign=middle;html=1;labelBackgroundColor=#ffffff;rounded=0;exitX=0.013157894736842105;exitY=0.5714285714285714;exitDx=0;exitDy=0;exitPerimeter=0;entryX=0.013157894736842105;entryY=0.5357142857142857;entryDx=0;entryDy=0;entryPerimeter=0;" edge="1" parent="1" source="GKsSiw1RwcMN33Dnaw3F-218" target="GKsSiw1RwcMN33Dnaw3F-127">
            <mxGeometry relative="1" as="geometry">
              <mxPoint x="7" y="-1" as="offset" />
              <Array as="points">
                <mxPoint x="143.04" y="749" />
                <mxPoint x="143.04" y="635.45" />
              </Array>
            </mxGeometry>
          </mxCell>
        </UserObject>
        <UserObject label="" tags="连接线" id="GKsSiw1RwcMN33Dnaw3F-249">
          <mxCell style="vsdxID=288;edgeStyle=none;startArrow=none;endArrow=none;startSize=9;endSize=9;spacingTop=0;spacingBottom=0;spacingLeft=0;spacingRight=0;verticalAlign=middle;html=1;labelBackgroundColor=#ffffff;rounded=0;exitX=0;exitY=0.5;exitDx=0;exitDy=0;exitPerimeter=0;entryX=1;entryY=0.9247311827956989;entryDx=0;entryDy=0;entryPerimeter=0;" edge="1" parent="1" source="GKsSiw1RwcMN33Dnaw3F-236" target="GKsSiw1RwcMN33Dnaw3F-223">
            <mxGeometry relative="1" as="geometry">
              <mxPoint x="-3" as="offset" />
              <Array as="points" />
            </mxGeometry>
          </mxCell>
        </UserObject>
        <UserObject label="" tags="连接线" id="GKsSiw1RwcMN33Dnaw3F-250">
          <mxCell style="vsdxID=286;edgeStyle=none;startArrow=none;endArrow=none;startSize=9;endSize=9;spacingTop=0;spacingBottom=0;spacingLeft=0;spacingRight=0;verticalAlign=middle;html=1;labelBackgroundColor=#ffffff;rounded=0;exitX=0;exitY=0.5;exitDx=0;exitDy=0;exitPerimeter=0;entryX=1;entryY=0.46236559139784944;entryDx=0;entryDy=0;entryPerimeter=0;" edge="1" parent="1" source="GKsSiw1RwcMN33Dnaw3F-235" target="GKsSiw1RwcMN33Dnaw3F-223">
            <mxGeometry relative="1" as="geometry">
              <mxPoint x="-3" as="offset" />
              <Array as="points" />
            </mxGeometry>
          </mxCell>
        </UserObject>
        <mxCell id="GKsSiw1RwcMN33Dnaw3F-127" value="&lt;div style=&quot;font-size: 1px&quot;&gt;&lt;font style=&quot;font-size:11.29px;font-family:SimSun;color:#000000;direction:ltr;letter-spacing:0px;line-height:120%;opacity:1&quot;&gt;采集配置&lt;br/&gt;&lt;/font&gt;&lt;/div&gt;" style="verticalAlign=middle;align=center;overflow=width;vsdxID=30;fillColor=#FFFFFF;gradientColor=none;shape=stencil(nZBLDoAgDERP0z3SIyjew0SURgSD+Lu9kMZoXLhwN9O+tukAlrNpJg1SzDH4QW/URgNYgZTkjA4UkwJUgGXng+6DX1zLfmoymdXo17xh5zmRJ6Q42BWCfc2oJfdAr+Yv+AP9Cb7OJ3H/2JG1HNGz/84klThPVCc=);points=[[1,0.5,0],[0.5,0,0],[0.5,0.5,0],[0.5,0.5,0]];labelBackgroundColor=none;rounded=0;html=1;whiteSpace=wrap;" vertex="1" parent="1">
          <mxGeometry x="173" y="621" width="76" height="28" as="geometry" />
        </mxCell>
        <mxCell id="GKsSiw1RwcMN33Dnaw3F-128" style="vsdxID=252;fillColor=none;gradientColor=none;points=[];labelBackgroundColor=none;rounded=0;strokeColor=none;html=1;whiteSpace=wrap;" vertex="1" parent="1">
          <mxGeometry x="25" y="25" width="577" height="675" as="geometry" />
        </mxCell>
        <mxCell id="GKsSiw1RwcMN33Dnaw3F-129" value="&lt;div style=&quot;font-size: 1px&quot;&gt;&lt;font style=&quot;font-size:16.93px;font-family:SimSun;color:#000000;direction:ltr;letter-spacing:0px;line-height:120%;opacity:1&quot;&gt;全&lt;br/&gt;景&lt;br/&gt;数&lt;br/&gt;据&lt;br/&gt;采&lt;br/&gt;集&lt;br/&gt;系&lt;br/&gt;统&lt;br/&gt;&lt;/font&gt;&lt;/div&gt;" style="verticalAlign=middle;align=center;overflow=width;vsdxID=1;fillColor=#FFFFFF;gradientColor=none;shape=stencil(nZBLDoAgDERP0z3SIyjew0SURgSD+Lu9kMZoXLhwN9O+tukAlrNpJg1SzDH4QW/URgNYgZTkjA4UkwJUgGXng+6DX1zLfmoymdXo17xh5zmRJ6Q42BWCfc2oJfdAr+Yv+AP9Cb7OJ3H/2JG1HNGz/84klThPVCc=);points=[[1,0.5,0],[0.5,0,0],[0.5,0.5,0],[0.5,0.5,0]];labelBackgroundColor=none;rounded=0;html=1;whiteSpace=wrap;" vertex="1" parent="GKsSiw1RwcMN33Dnaw3F-128">
          <mxGeometry x="62" y="297" width="41" height="220" as="geometry" />
        </mxCell>
        <mxCell id="GKsSiw1RwcMN33Dnaw3F-130" style="vsdxID=13;fillColor=none;gradientColor=none;points=[];labelBackgroundColor=none;rounded=0;strokeColor=none;html=1;whiteSpace=wrap;" vertex="1" parent="GKsSiw1RwcMN33Dnaw3F-128">
          <mxGeometry x="144" y="249" width="182" height="131" as="geometry" />
        </mxCell>
        <mxCell id="GKsSiw1RwcMN33Dnaw3F-131" value="&lt;div style=&quot;font-size: 1px&quot;&gt;&lt;font style=&quot;font-size:11.29px;font-family:SimSun;color:#000000;direction:ltr;letter-spacing:0px;line-height:120%;opacity:1&quot;&gt;状态监控&lt;br/&gt;&lt;/font&gt;&lt;/div&gt;" style="verticalAlign=middle;align=center;overflow=width;vsdxID=14;fillColor=#FFFFFF;gradientColor=none;shape=stencil(nZBLDoAgDERP0z3SIyjew0SURgSD+Lu9kMZoXLhwN9O+tukAlrNpJg1SzDH4QW/URgNYgZTkjA4UkwJUgGXng+6DX1zLfmoymdXo17xh5zmRJ6Q42BWCfc2oJfdAr+Yv+AP9Cb7OJ3H/2JG1HNGz/84klThPVCc=);points=[[1,0.5,0],[0.5,0,0],[0.5,0.5,0],[0.5,0.5,0]];labelBackgroundColor=none;rounded=0;html=1;whiteSpace=wrap;" vertex="1" parent="GKsSiw1RwcMN33Dnaw3F-130">
          <mxGeometry y="52" width="76" height="25" as="geometry" />
        </mxCell>
        <mxCell id="GKsSiw1RwcMN33Dnaw3F-132" style="vsdxID=15;fillColor=none;gradientColor=none;points=[];labelBackgroundColor=none;rounded=0;strokeColor=none;html=1;whiteSpace=wrap;" vertex="1" parent="GKsSiw1RwcMN33Dnaw3F-130">
          <mxGeometry x="106" width="76" height="131" as="geometry" />
        </mxCell>
        <mxCell id="GKsSiw1RwcMN33Dnaw3F-133" value="&lt;div style=&quot;font-size: 1px&quot;&gt;&lt;font style=&quot;font-size:11.29px;font-family:SimSun;color:#000000;direction:ltr;letter-spacing:0px;line-height:120%;opacity:1&quot;&gt;检测状态&lt;br/&gt;&lt;/font&gt;&lt;/div&gt;" style="verticalAlign=middle;align=center;overflow=width;vsdxID=16;fillColor=#FFFFFF;gradientColor=none;shape=stencil(nZBLDoAgDERP0z3SIyjew0SURgSD+Lu9kMZoXLhwN9O+tukAlrNpJg1SzDH4QW/URgNYgZTkjA4UkwJUgGXng+6DX1zLfmoymdXo17xh5zmRJ6Q42BWCfc2oJfdAr+Yv+AP9Cb7OJ3H/2JG1HNGz/84klThPVCc=);points=[[1,0.5,0],[0.5,0,0],[0.5,0.5,0],[0.5,0.5,0]];labelBackgroundColor=none;rounded=0;html=1;whiteSpace=wrap;" vertex="1" parent="GKsSiw1RwcMN33Dnaw3F-132">
          <mxGeometry y="-4" width="76" height="25" as="geometry" />
        </mxCell>
        <mxCell id="GKsSiw1RwcMN33Dnaw3F-134" value="&lt;div style=&quot;font-size: 1px&quot;&gt;&lt;font style=&quot;font-size:11.29px;font-family:SimSun;color:#000000;direction:ltr;letter-spacing:0px;line-height:120%;opacity:1&quot;&gt;设备状态&lt;br/&gt;&lt;/font&gt;&lt;/div&gt;" style="verticalAlign=middle;align=center;overflow=width;vsdxID=17;fillColor=#FFFFFF;gradientColor=none;shape=stencil(nZBLDoAgDERP0z3SIyjew0SURgSD+Lu9kMZoXLhwN9O+tukAlrNpJg1SzDH4QW/URgNYgZTkjA4UkwJUgGXng+6DX1zLfmoymdXo17xh5zmRJ6Q42BWCfc2oJfdAr+Yv+AP9Cb7OJ3H/2JG1HNGz/84klThPVCc=);points=[[1,0.5,0],[0.5,0,0],[0.5,0.5,0],[0.5,0.5,0]];labelBackgroundColor=none;rounded=0;html=1;whiteSpace=wrap;" vertex="1" parent="GKsSiw1RwcMN33Dnaw3F-132">
          <mxGeometry y="37" width="76" height="25" as="geometry" />
        </mxCell>
        <mxCell id="GKsSiw1RwcMN33Dnaw3F-135" value="&lt;div style=&quot;font-size: 1px&quot;&gt;&lt;font style=&quot;font-size:8.47px;font-family:SimSun;color:#000000;direction:ltr;letter-spacing:0px;line-height:120%;opacity:1&quot;&gt;外部系统状态&lt;br/&gt;&lt;/font&gt;&lt;/div&gt;" style="verticalAlign=middle;align=center;overflow=width;vsdxID=18;fillColor=#FFFFFF;gradientColor=none;shape=stencil(nZBLDoAgDERP0z3SIyjew0SURgSD+Lu9kMZoXLhwN9O+tukAlrNpJg1SzDH4QW/URgNYgZTkjA4UkwJUgGXng+6DX1zLfmoymdXo17xh5zmRJ6Q42BWCfc2oJfdAr+Yv+AP9Cb7OJ3H/2JG1HNGz/84klThPVCc=);points=[[1,0.5,0],[0.5,0,0],[0.5,0.5,0],[0.5,0.5,0]];labelBackgroundColor=none;rounded=0;html=1;whiteSpace=wrap;" vertex="1" parent="GKsSiw1RwcMN33Dnaw3F-132">
          <mxGeometry y="80" width="76" height="25" as="geometry" />
        </mxCell>
        <mxCell id="GKsSiw1RwcMN33Dnaw3F-136" value="&lt;div style=&quot;font-size: 1px&quot;&gt;&lt;font style=&quot;font-size:11.29px;font-family:SimSun;color:#000000;direction:ltr;letter-spacing:0px;line-height:120%;opacity:1&quot;&gt;运行日志&lt;br/&gt;&lt;/font&gt;&lt;/div&gt;" style="verticalAlign=middle;align=center;overflow=width;vsdxID=19;fillColor=#FFFFFF;gradientColor=none;shape=stencil(nZBLDoAgDERP0z3SIyjew0SURgSD+Lu9kMZoXLhwN9O+tukAlrNpJg1SzDH4QW/URgNYgZTkjA4UkwJUgGXng+6DX1zLfmoymdXo17xh5zmRJ6Q42BWCfc2oJfdAr+Yv+AP9Cb7OJ3H/2JG1HNGz/84klThPVCc=);points=[[1,0.5,0],[0.5,0,0],[0.5,0.5,0],[0.5,0.5,0]];labelBackgroundColor=none;rounded=0;html=1;whiteSpace=wrap;" vertex="1" parent="GKsSiw1RwcMN33Dnaw3F-132">
          <mxGeometry x="-1" y="122" width="76" height="25" as="geometry" />
        </mxCell>
        <UserObject label="" tags="连接线" id="GKsSiw1RwcMN33Dnaw3F-191">
          <mxCell style="vsdxID=65;edgeStyle=none;startArrow=none;endArrow=none;startSize=9;endSize=9;spacingTop=0;spacingBottom=0;spacingLeft=0;spacingRight=0;verticalAlign=middle;html=1;labelBackgroundColor=#ffffff;rounded=0;exitX=0;exitY=0.48;exitDx=0;exitDy=0;exitPerimeter=0;entryX=0.013157894736842105;entryY=0.48;entryDx=0;entryDy=0;entryPerimeter=0;" edge="1" parent="GKsSiw1RwcMN33Dnaw3F-132" source="GKsSiw1RwcMN33Dnaw3F-135" target="GKsSiw1RwcMN33Dnaw3F-136">
            <mxGeometry relative="1" as="geometry">
              <mxPoint x="-10" as="offset" />
              <Array as="points">
                <mxPoint x="-15.830000000000013" y="92" />
                <mxPoint x="-15.830000000000013" y="133.86" />
              </Array>
            </mxGeometry>
          </mxCell>
        </UserObject>
        <mxCell id="GKsSiw1RwcMN33Dnaw3F-137" style="vsdxID=32;fillColor=none;gradientColor=none;points=[];labelBackgroundColor=none;rounded=0;strokeColor=none;html=1;whiteSpace=wrap;" vertex="1" parent="GKsSiw1RwcMN33Dnaw3F-128">
          <mxGeometry x="143" y="437" width="182" height="82" as="geometry" />
        </mxCell>
        <mxCell id="GKsSiw1RwcMN33Dnaw3F-138" style="vsdxID=24;fillColor=none;gradientColor=none;points=[];labelBackgroundColor=none;rounded=0;strokeColor=none;html=1;whiteSpace=wrap;" vertex="1" parent="GKsSiw1RwcMN33Dnaw3F-137">
          <mxGeometry x="106" width="76" height="82" as="geometry" />
        </mxCell>
        <mxCell id="GKsSiw1RwcMN33Dnaw3F-139" value="&lt;div style=&quot;font-size: 1px&quot;&gt;&lt;font style=&quot;font-size:11.29px;font-family:SimSun;color:#000000;direction:ltr;letter-spacing:0px;line-height:120%;opacity:1&quot;&gt;智控系统&lt;br/&gt;&lt;/font&gt;&lt;/div&gt;" style="verticalAlign=middle;align=center;overflow=width;vsdxID=21;fillColor=#FFFFFF;gradientColor=none;shape=stencil(nZBLDoAgDERP0z3SIyjew0SURgSD+Lu9kMZoXLhwN9O+tukAlrNpJg1SzDH4QW/URgNYgZTkjA4UkwJUgGXng+6DX1zLfmoymdXo17xh5zmRJ6Q42BWCfc2oJfdAr+Yv+AP9Cb7OJ3H/2JG1HNGz/84klThPVCc=);points=[[1,0.5,0],[0.5,0,0],[0.5,0.5,0],[0.5,0.5,0]];labelBackgroundColor=none;rounded=0;html=1;whiteSpace=wrap;" vertex="1" parent="GKsSiw1RwcMN33Dnaw3F-138">
          <mxGeometry y="-25" width="76" height="28" as="geometry" />
        </mxCell>
        <mxCell id="GKsSiw1RwcMN33Dnaw3F-140" value="&lt;div style=&quot;font-size: 1px&quot;&gt;&lt;font style=&quot;font-size:11.29px;font-family:SimSun;color:#000000;direction:ltr;letter-spacing:0px;line-height:120%;opacity:1&quot;&gt;数据归集&lt;br/&gt;&lt;/font&gt;&lt;/div&gt;" style="verticalAlign=middle;align=center;overflow=width;vsdxID=22;fillColor=#FFFFFF;gradientColor=none;shape=stencil(nZBLDoAgDERP0z3SIyjew0SURgSD+Lu9kMZoXLhwN9O+tukAlrNpJg1SzDH4QW/URgNYgZTkjA4UkwJUgGXng+6DX1zLfmoymdXo17xh5zmRJ6Q42BWCfc2oJfdAr+Yv+AP9Cb7OJ3H/2JG1HNGz/84klThPVCc=);points=[[1,0.5,0],[0.5,0,0],[0.5,0.5,0],[0.5,0.5,0]];labelBackgroundColor=none;rounded=0;html=1;whiteSpace=wrap;" vertex="1" parent="GKsSiw1RwcMN33Dnaw3F-138">
          <mxGeometry y="20" width="76" height="28" as="geometry" />
        </mxCell>
        <mxCell id="GKsSiw1RwcMN33Dnaw3F-141" value="&lt;div style=&quot;font-size: 1px&quot;&gt;&lt;font style=&quot;font-size:11.29px;font-family:SimSun;color:#000000;direction:ltr;letter-spacing:0px;line-height:120%;opacity:1&quot;&gt;综合里程&lt;br/&gt;&lt;/font&gt;&lt;/div&gt;" style="verticalAlign=middle;align=center;overflow=width;vsdxID=23;fillColor=#FFFFFF;gradientColor=none;shape=stencil(nZBLDoAgDERP0z3SIyjew0SURgSD+Lu9kMZoXLhwN9O+tukAlrNpJg1SzDH4QW/URgNYgZTkjA4UkwJUgGXng+6DX1zLfmoymdXo17xh5zmRJ6Q42BWCfc2oJfdAr+Yv+AP9Cb7OJ3H/2JG1HNGz/84klThPVCc=);points=[[1,0.5,0],[0.5,0,0],[0.5,0.5,0],[0.5,0.5,0]];labelBackgroundColor=none;rounded=0;html=1;whiteSpace=wrap;" vertex="1" parent="GKsSiw1RwcMN33Dnaw3F-138">
          <mxGeometry y="62" width="76" height="28" as="geometry" />
        </mxCell>
        <UserObject label="" tags="连接线" id="GKsSiw1RwcMN33Dnaw3F-192">
          <mxCell style="vsdxID=71;edgeStyle=none;startArrow=none;endArrow=none;startSize=9;endSize=9;spacingTop=0;spacingBottom=0;spacingLeft=0;spacingRight=0;verticalAlign=middle;html=1;labelBackgroundColor=#ffffff;rounded=0;exitX=0;exitY=0.5357142857142857;exitDx=0;exitDy=0;exitPerimeter=0;entryX=0;entryY=0.5;entryDx=0;entryDy=0;entryPerimeter=0;" edge="1" parent="GKsSiw1RwcMN33Dnaw3F-138" source="GKsSiw1RwcMN33Dnaw3F-139" target="GKsSiw1RwcMN33Dnaw3F-140">
            <mxGeometry relative="1" as="geometry">
              <mxPoint x="10" as="offset" />
              <Array as="points">
                <mxPoint x="-15" y="-10" />
                <mxPoint x="-15" y="34.44999999999999" />
              </Array>
            </mxGeometry>
          </mxCell>
        </UserObject>
        <UserObject label="" tags="连接线" id="GKsSiw1RwcMN33Dnaw3F-193">
          <mxCell style="vsdxID=73;edgeStyle=none;startArrow=none;endArrow=none;startSize=9;endSize=9;spacingTop=0;spacingBottom=0;spacingLeft=0;spacingRight=0;verticalAlign=middle;html=1;labelBackgroundColor=#ffffff;rounded=0;exitX=0;exitY=0.5;exitDx=0;exitDy=0;exitPerimeter=0;entryX=0;entryY=0.5;entryDx=0;entryDy=0;entryPerimeter=0;" edge="1" parent="GKsSiw1RwcMN33Dnaw3F-138" source="GKsSiw1RwcMN33Dnaw3F-141" target="GKsSiw1RwcMN33Dnaw3F-140">
            <mxGeometry relative="1" as="geometry">
              <mxPoint x="10" as="offset" />
              <Array as="points">
                <mxPoint x="-15" y="76" />
                <mxPoint x="-15" y="34.05000000000001" />
              </Array>
            </mxGeometry>
          </mxCell>
        </UserObject>
        <mxCell id="GKsSiw1RwcMN33Dnaw3F-142" value="&lt;div style=&quot;font-size: 1px&quot;&gt;&lt;font style=&quot;font-size:11.29px;font-family:SimSun;color:#000000;direction:ltr;letter-spacing:0px;line-height:120%;opacity:1&quot;&gt;外部通讯&lt;br/&gt;&lt;/font&gt;&lt;/div&gt;" style="verticalAlign=middle;align=center;overflow=width;vsdxID=29;fillColor=#FFFFFF;gradientColor=none;shape=stencil(nZBLDoAgDERP0z3SIyjew0SURgSD+Lu9kMZoXLhwN9O+tukAlrNpJg1SzDH4QW/URgNYgZTkjA4UkwJUgGXng+6DX1zLfmoymdXo17xh5zmRJ6Q42BWCfc2oJfdAr+Yv+AP9Cb7OJ3H/2JG1HNGz/84klThPVCc=);points=[[1,0.5,0],[0.5,0,0],[0.5,0.5,0],[0.5,0.5,0]];labelBackgroundColor=none;rounded=0;html=1;whiteSpace=wrap;" vertex="1" parent="GKsSiw1RwcMN33Dnaw3F-137">
          <mxGeometry y="20" width="76" height="27" as="geometry" />
        </mxCell>
        <mxCell id="GKsSiw1RwcMN33Dnaw3F-143" style="vsdxID=96;fillColor=none;gradientColor=none;points=[];labelBackgroundColor=none;rounded=0;strokeColor=none;html=1;whiteSpace=wrap;" vertex="1" parent="GKsSiw1RwcMN33Dnaw3F-128">
          <mxGeometry x="144" y="3" width="182" height="147" as="geometry" />
        </mxCell>
        <mxCell id="GKsSiw1RwcMN33Dnaw3F-144" style="vsdxID=12;fillColor=none;gradientColor=none;points=[];labelBackgroundColor=none;rounded=0;strokeColor=none;html=1;whiteSpace=wrap;" vertex="1" parent="GKsSiw1RwcMN33Dnaw3F-143">
          <mxGeometry width="182" height="147" as="geometry" />
        </mxCell>
        <mxCell id="GKsSiw1RwcMN33Dnaw3F-145" value="&lt;div style=&quot;font-size: 1px&quot;&gt;&lt;font style=&quot;font-size:11.29px;font-family:SimSun;color:#000000;direction:ltr;letter-spacing:0px;line-height:120%;opacity:1&quot;&gt;数据采集2&lt;br&gt;&lt;/font&gt;&lt;/div&gt;" style="verticalAlign=middle;align=center;overflow=width;vsdxID=2;fillColor=#FFFFFF;gradientColor=none;shape=stencil(nZBLDoAgDERP0z3SIyjew0SURgSD+Lu9kMZoXLhwN9O+tukAlrNpJg1SzDH4QW/URgNYgZTkjA4UkwJUgGXng+6DX1zLfmoymdXo17xh5zmRJ6Q42BWCfc2oJfdAr+Yv+AP9Cb7OJ3H/2JG1HNGz/84klThPVCc=);points=[[1,0.5,0],[0.5,0,0],[0.5,0.5,0],[0.5,0.5,0]];labelBackgroundColor=none;rounded=0;html=1;whiteSpace=wrap;" vertex="1" parent="GKsSiw1RwcMN33Dnaw3F-144">
          <mxGeometry y="60" width="76" height="28" as="geometry" />
        </mxCell>
        <mxCell id="GKsSiw1RwcMN33Dnaw3F-146" style="vsdxID=7;fillColor=none;gradientColor=none;points=[];labelBackgroundColor=none;rounded=0;strokeColor=none;html=1;whiteSpace=wrap;" vertex="1" parent="GKsSiw1RwcMN33Dnaw3F-144">
          <mxGeometry x="106" width="76" height="147" as="geometry" />
        </mxCell>
        <mxCell id="GKsSiw1RwcMN33Dnaw3F-147" value="&lt;div style=&quot;font-size: 1px&quot;&gt;&lt;font style=&quot;font-size:11.29px;font-family:SimSun;color:#000000;direction:ltr;letter-spacing:0px;line-height:120%;opacity:1&quot;&gt;数据接收&lt;br/&gt;&lt;/font&gt;&lt;/div&gt;" style="verticalAlign=middle;align=center;overflow=width;vsdxID=3;fillColor=#FFFFFF;gradientColor=none;shape=stencil(nZBLDoAgDERP0z3SIyjew0SURgSD+Lu9kMZoXLhwN9O+tukAlrNpJg1SzDH4QW/URgNYgZTkjA4UkwJUgGXng+6DX1zLfmoymdXo17xh5zmRJ6Q42BWCfc2oJfdAr+Yv+AP9Cb7OJ3H/2JG1HNGz/84klThPVCc=);points=[[1,0.5,0],[0.5,0,0],[0.5,0.5,0],[0.5,0.5,0]];labelBackgroundColor=none;rounded=0;html=1;whiteSpace=wrap;" vertex="1" parent="GKsSiw1RwcMN33Dnaw3F-146">
          <mxGeometry y="-1" width="76" height="28" as="geometry" />
        </mxCell>
        <mxCell id="GKsSiw1RwcMN33Dnaw3F-148" value="&lt;div style=&quot;font-size: 1px&quot;&gt;&lt;font style=&quot;font-size:11.29px;font-family:SimSun;color:#000000;direction:ltr;letter-spacing:0px;line-height:120%;opacity:1&quot;&gt;数据处理&lt;br/&gt;&lt;/font&gt;&lt;/div&gt;" style="verticalAlign=middle;align=center;overflow=width;vsdxID=4;fillColor=#FFFFFF;gradientColor=none;shape=stencil(nZBLDoAgDERP0z3SIyjew0SURgSD+Lu9kMZoXLhwN9O+tukAlrNpJg1SzDH4QW/URgNYgZTkjA4UkwJUgGXng+6DX1zLfmoymdXo17xh5zmRJ6Q42BWCfc2oJfdAr+Yv+AP9Cb7OJ3H/2JG1HNGz/84klThPVCc=);points=[[1,0.5,0],[0.5,0,0],[0.5,0.5,0],[0.5,0.5,0]];labelBackgroundColor=none;rounded=0;html=1;whiteSpace=wrap;" vertex="1" parent="GKsSiw1RwcMN33Dnaw3F-146">
          <mxGeometry y="39" width="76" height="28" as="geometry" />
        </mxCell>
        <mxCell id="GKsSiw1RwcMN33Dnaw3F-149" value="&lt;div style=&quot;font-size: 1px&quot;&gt;&lt;font style=&quot;font-size:11.29px;font-family:SimSun;color:#000000;direction:ltr;letter-spacing:0px;line-height:120%;opacity:1&quot;&gt;数据存储&lt;br/&gt;&lt;/font&gt;&lt;/div&gt;" style="verticalAlign=middle;align=center;overflow=width;vsdxID=5;fillColor=#FFFFFF;gradientColor=none;shape=stencil(nZBLDoAgDERP0z3SIyjew0SURgSD+Lu9kMZoXLhwN9O+tukAlrNpJg1SzDH4QW/URgNYgZTkjA4UkwJUgGXng+6DX1zLfmoymdXo17xh5zmRJ6Q42BWCfc2oJfdAr+Yv+AP9Cb7OJ3H/2JG1HNGz/84klThPVCc=);points=[[1,0.5,0],[0.5,0,0],[0.5,0.5,0],[0.5,0.5,0]];labelBackgroundColor=none;rounded=0;html=1;whiteSpace=wrap;" vertex="1" parent="GKsSiw1RwcMN33Dnaw3F-146">
          <mxGeometry y="79" width="76" height="28" as="geometry" />
        </mxCell>
        <mxCell id="GKsSiw1RwcMN33Dnaw3F-150" value="&lt;div style=&quot;font-size: 1px&quot;&gt;&lt;font style=&quot;font-size:11.29px;font-family:SimSun;color:#000000;direction:ltr;letter-spacing:0px;line-height:120%;opacity:1&quot;&gt;数据预览&lt;br/&gt;&lt;/font&gt;&lt;/div&gt;" style="verticalAlign=middle;align=center;overflow=width;vsdxID=6;fillColor=#FFFFFF;gradientColor=none;shape=stencil(nZBLDoAgDERP0z3SIyjew0SURgSD+Lu9kMZoXLhwN9O+tukAlrNpJg1SzDH4QW/URgNYgZTkjA4UkwJUgGXng+6DX1zLfmoymdXo17xh5zmRJ6Q42BWCfc2oJfdAr+Yv+AP9Cb7OJ3H/2JG1HNGz/84klThPVCc=);points=[[1,0.5,0],[0.5,0,0],[0.5,0.5,0],[0.5,0.5,0]];labelBackgroundColor=none;rounded=0;html=1;whiteSpace=wrap;" vertex="1" parent="GKsSiw1RwcMN33Dnaw3F-146">
          <mxGeometry y="119" width="76" height="28" as="geometry" />
        </mxCell>
        <UserObject label="" tags="连接线" id="GKsSiw1RwcMN33Dnaw3F-152">
          <mxCell style="vsdxID=53;edgeStyle=none;startArrow=none;endArrow=none;startSize=9;endSize=9;spacingTop=0;spacingBottom=0;spacingLeft=0;spacingRight=0;verticalAlign=middle;html=1;labelBackgroundColor=#ffffff;rounded=0;exitX=0;exitY=0.4642857142857143;exitDx=0;exitDy=0;exitPerimeter=0;entryX=0;entryY=0.5;entryDx=0;entryDy=0;entryPerimeter=0;" edge="1" parent="GKsSiw1RwcMN33Dnaw3F-146" source="GKsSiw1RwcMN33Dnaw3F-147" target="GKsSiw1RwcMN33Dnaw3F-148">
            <mxGeometry relative="1" as="geometry">
              <mxPoint x="10" as="offset" />
              <Array as="points">
                <mxPoint x="-15" y="12" />
                <mxPoint x="-15" y="52.35" />
              </Array>
            </mxGeometry>
          </mxCell>
        </UserObject>
        <UserObject label="" tags="连接线" id="GKsSiw1RwcMN33Dnaw3F-151">
          <mxCell style="vsdxID=55;edgeStyle=none;startArrow=none;endArrow=none;startSize=9;endSize=9;spacingTop=0;spacingBottom=0;spacingLeft=0;spacingRight=0;verticalAlign=middle;html=1;labelBackgroundColor=#ffffff;rounded=0;exitX=0;exitY=0.4642857142857143;exitDx=0;exitDy=0;exitPerimeter=0;entryX=0;entryY=0.5;entryDx=0;entryDy=0;entryPerimeter=0;" edge="1" parent="GKsSiw1RwcMN33Dnaw3F-146" source="GKsSiw1RwcMN33Dnaw3F-149" target="GKsSiw1RwcMN33Dnaw3F-148">
            <mxGeometry relative="1" as="geometry">
              <mxPoint x="10" as="offset" />
              <Array as="points">
                <mxPoint x="-15" y="92" />
                <mxPoint x="-15" y="52.29" />
              </Array>
            </mxGeometry>
          </mxCell>
        </UserObject>
        <UserObject label="" tags="连接线" id="GKsSiw1RwcMN33Dnaw3F-153">
          <mxCell style="vsdxID=56;edgeStyle=none;startArrow=none;endArrow=none;startSize=9;endSize=9;spacingTop=0;spacingBottom=0;spacingLeft=0;spacingRight=0;verticalAlign=middle;html=1;labelBackgroundColor=#ffffff;rounded=0;exitX=0;exitY=0.4642857142857143;exitDx=0;exitDy=0;exitPerimeter=0;entryX=0;entryY=0.4642857142857143;entryDx=0;entryDy=0;entryPerimeter=0;" edge="1" parent="GKsSiw1RwcMN33Dnaw3F-146" source="GKsSiw1RwcMN33Dnaw3F-150" target="GKsSiw1RwcMN33Dnaw3F-149">
            <mxGeometry relative="1" as="geometry">
              <mxPoint x="10" as="offset" />
              <Array as="points">
                <mxPoint x="-15" y="132" />
                <mxPoint x="-15" y="92.29" />
              </Array>
            </mxGeometry>
          </mxCell>
        </UserObject>
        <mxCell id="GKsSiw1RwcMN33Dnaw3F-154" style="vsdxID=118;fillColor=none;gradientColor=none;points=[];labelBackgroundColor=none;rounded=0;strokeColor=none;html=1;whiteSpace=wrap;" vertex="1" parent="GKsSiw1RwcMN33Dnaw3F-128">
          <mxGeometry x="144" y="167" width="182" height="51" as="geometry" />
        </mxCell>
        <mxCell id="GKsSiw1RwcMN33Dnaw3F-155" style="vsdxID=31;fillColor=none;gradientColor=none;points=[];labelBackgroundColor=none;rounded=0;strokeColor=none;html=1;whiteSpace=wrap;" vertex="1" parent="GKsSiw1RwcMN33Dnaw3F-154">
          <mxGeometry width="182" height="51" as="geometry" />
        </mxCell>
        <mxCell id="GKsSiw1RwcMN33Dnaw3F-156" value="&lt;div style=&quot;font-size: 1px&quot;&gt;&lt;font style=&quot;font-size:11.29px;font-family:SimSun;color:#000000;direction:ltr;letter-spacing:0px;line-height:120%;opacity:1&quot;&gt;采集控制&lt;br/&gt;&lt;/font&gt;&lt;/div&gt;" style="verticalAlign=middle;align=center;overflow=width;vsdxID=10;fillColor=#FFFFFF;gradientColor=none;shape=stencil(nZBLDoAgDERP0z3SIyjew0SURgSD+Lu9kMZoXLhwN9O+tukAlrNpJg1SzDH4QW/URgNYgZTkjA4UkwJUgGXng+6DX1zLfmoymdXo17xh5zmRJ6Q42BWCfc2oJfdAr+Yv+AP9Cb7OJ3H/2JG1HNGz/84klThPVCc=);points=[[1,0.5,0],[0.5,0,0],[0.5,0.5,0],[0.5,0.5,0]];labelBackgroundColor=none;rounded=0;html=1;whiteSpace=wrap;" vertex="1" parent="GKsSiw1RwcMN33Dnaw3F-155">
          <mxGeometry y="12" width="76" height="20" as="geometry" />
        </mxCell>
        <mxCell id="GKsSiw1RwcMN33Dnaw3F-157" style="vsdxID=11;fillColor=none;gradientColor=none;points=[];labelBackgroundColor=none;rounded=0;strokeColor=none;html=1;whiteSpace=wrap;" vertex="1" parent="GKsSiw1RwcMN33Dnaw3F-155">
          <mxGeometry x="106" width="76" height="51" as="geometry" />
        </mxCell>
        <mxCell id="GKsSiw1RwcMN33Dnaw3F-158" value="&lt;div style=&quot;font-size: 1px&quot;&gt;&lt;font style=&quot;font-size:11.29px;font-family:SimSun;color:#000000;direction:ltr;letter-spacing:0px;line-height:120%;opacity:1&quot;&gt;基本控制&lt;br/&gt;&lt;/font&gt;&lt;/div&gt;" style="verticalAlign=middle;align=center;overflow=width;vsdxID=8;fillColor=#FFFFFF;gradientColor=none;shape=stencil(nZBLDoAgDERP0z3SIyjew0SURgSD+Lu9kMZoXLhwN9O+tukAlrNpJg1SzDH4QW/URgNYgZTkjA4UkwJUgGXng+6DX1zLfmoymdXo17xh5zmRJ6Q42BWCfc2oJfdAr+Yv+AP9Cb7OJ3H/2JG1HNGz/84klThPVCc=);points=[[1,0.5,0],[0.5,0,0],[0.5,0.5,0],[0.5,0.5,0]];labelBackgroundColor=none;rounded=0;html=1;whiteSpace=wrap;" vertex="1" parent="GKsSiw1RwcMN33Dnaw3F-157">
          <mxGeometry y="-4" width="76" height="20" as="geometry" />
        </mxCell>
        <mxCell id="GKsSiw1RwcMN33Dnaw3F-159" value="&lt;div style=&quot;font-size: 1px&quot;&gt;&lt;font style=&quot;font-size:11.29px;font-family:SimSun;color:#000000;direction:ltr;letter-spacing:0px;line-height:120%;opacity:1&quot;&gt;检测控制&lt;br/&gt;&lt;/font&gt;&lt;/div&gt;" style="verticalAlign=middle;align=center;overflow=width;vsdxID=9;fillColor=#FFFFFF;gradientColor=none;shape=stencil(nZBLDoAgDERP0z3SIyjew0SURgSD+Lu9kMZoXLhwN9O+tukAlrNpJg1SzDH4QW/URgNYgZTkjA4UkwJUgGXng+6DX1zLfmoymdXo17xh5zmRJ6Q42BWCfc2oJfdAr+Yv+AP9Cb7OJ3H/2JG1HNGz/84klThPVCc=);points=[[1,0.5,0],[0.5,0,0],[0.5,0.5,0],[0.5,0.5,0]];labelBackgroundColor=none;rounded=0;html=1;whiteSpace=wrap;" vertex="1" parent="GKsSiw1RwcMN33Dnaw3F-157">
          <mxGeometry y="36" width="76" height="20" as="geometry" />
        </mxCell>
        <UserObject label="" tags="连接线" id="GKsSiw1RwcMN33Dnaw3F-160">
          <mxCell style="vsdxID=60;edgeStyle=none;startArrow=none;endArrow=none;startSize=9;endSize=9;spacingTop=0;spacingBottom=0;spacingLeft=0;spacingRight=0;verticalAlign=middle;html=1;labelBackgroundColor=#ffffff;rounded=0;exitX=0;exitY=0.5;exitDx=0;exitDy=0;exitPerimeter=0;entryX=1;entryY=0.5;entryDx=0;entryDy=0;entryPerimeter=0;" edge="1" parent="GKsSiw1RwcMN33Dnaw3F-155" source="GKsSiw1RwcMN33Dnaw3F-158" target="GKsSiw1RwcMN33Dnaw3F-156">
            <mxGeometry relative="1" as="geometry">
              <mxPoint as="offset" />
              <Array as="points">
                <mxPoint x="91" y="6" />
                <mxPoint x="91" y="21.81" />
              </Array>
            </mxGeometry>
          </mxCell>
        </UserObject>
        <UserObject label="" tags="连接线" id="GKsSiw1RwcMN33Dnaw3F-161">
          <mxCell style="vsdxID=61;edgeStyle=none;startArrow=none;endArrow=none;startSize=9;endSize=9;spacingTop=0;spacingBottom=0;spacingLeft=0;spacingRight=0;verticalAlign=middle;html=1;labelBackgroundColor=#ffffff;rounded=0;exitX=0;exitY=0.5;exitDx=0;exitDy=0;exitPerimeter=0;entryX=1;entryY=0.5;entryDx=0;entryDy=0;entryPerimeter=0;" edge="1" parent="GKsSiw1RwcMN33Dnaw3F-155" source="GKsSiw1RwcMN33Dnaw3F-159" target="GKsSiw1RwcMN33Dnaw3F-156">
            <mxGeometry relative="1" as="geometry">
              <mxPoint y="-1" as="offset" />
              <Array as="points">
                <mxPoint x="91" y="46" />
                <mxPoint x="91" y="21.53" />
              </Array>
            </mxGeometry>
          </mxCell>
        </UserObject>
        <mxCell id="GKsSiw1RwcMN33Dnaw3F-162" value="&lt;div style=&quot;font-size: 1px&quot;&gt;&lt;font style=&quot;font-size:11.29px;font-family:SimSun;color:#000000;direction:ltr;letter-spacing:0px;line-height:120%;opacity:1&quot;&gt;设备管理&lt;br/&gt;&lt;/font&gt;&lt;/div&gt;" style="verticalAlign=middle;align=center;overflow=width;vsdxID=239;fillColor=#FFFFFF;gradientColor=none;shape=stencil(nZBLDoAgDERP0z3SIyjew0SURgSD+Lu9kMZoXLhwN9O+tukAlrNpJg1SzDH4QW/URgNYgZTkjA4UkwJUgGXng+6DX1zLfmoymdXo17xh5zmRJ6Q42BWCfc2oJfdAr+Yv+AP9Cb7OJ3H/2JG1HNGz/84klThPVCc=);points=[[1,0.5,0],[0.5,0,0],[0.5,0.5,0],[0.5,0.5,0]];labelBackgroundColor=none;rounded=0;html=1;whiteSpace=wrap;" vertex="1" parent="GKsSiw1RwcMN33Dnaw3F-128">
          <mxGeometry x="251" y="549" width="76" height="28" as="geometry" />
        </mxCell>
        <mxCell id="GKsSiw1RwcMN33Dnaw3F-163" value="&lt;div style=&quot;font-size: 1px&quot;&gt;&lt;font style=&quot;font-size:11.29px;font-family:SimSun;color:#000000;direction:ltr;letter-spacing:0px;line-height:120%;opacity:1&quot;&gt;标定配置&lt;br/&gt;&lt;/font&gt;&lt;/div&gt;" style="verticalAlign=middle;align=center;overflow=width;vsdxID=240;fillColor=#FFFFFF;gradientColor=none;shape=stencil(nZBLDoAgDERP0z3SIyjew0SURgSD+Lu9kMZoXLhwN9O+tukAlrNpJg1SzDH4QW/URgNYgZTkjA4UkwJUgGXng+6DX1zLfmoymdXo17xh5zmRJ6Q42BWCfc2oJfdAr+Yv+AP9Cb7OJ3H/2JG1HNGz/84klThPVCc=);points=[[1,0.5,0],[0.5,0,0],[0.5,0.5,0],[0.5,0.5,0]];labelBackgroundColor=none;rounded=0;html=1;whiteSpace=wrap;" vertex="1" parent="GKsSiw1RwcMN33Dnaw3F-128">
          <mxGeometry x="251" y="596" width="76" height="28" as="geometry" />
        </mxCell>
        <mxCell id="GKsSiw1RwcMN33Dnaw3F-164" value="&lt;div style=&quot;font-size: 1px&quot;&gt;&lt;font style=&quot;font-size:11.29px;font-family:SimSun;color:#000000;direction:ltr;letter-spacing:0px;line-height:120%;opacity:1&quot;&gt;系统参数&lt;br/&gt;&lt;/font&gt;&lt;/div&gt;" style="verticalAlign=middle;align=center;overflow=width;vsdxID=241;fillColor=#FFFFFF;gradientColor=none;shape=stencil(nZBLDoAgDERP0z3SIyjew0SURgSD+Lu9kMZoXLhwN9O+tukAlrNpJg1SzDH4QW/URgNYgZTkjA4UkwJUgGXng+6DX1zLfmoymdXo17xh5zmRJ6Q42BWCfc2oJfdAr+Yv+AP9Cb7OJ3H/2JG1HNGz/84klThPVCc=);points=[[1,0.5,0],[0.5,0,0],[0.5,0.5,0],[0.5,0.5,0]];labelBackgroundColor=none;rounded=0;html=1;whiteSpace=wrap;" vertex="1" parent="GKsSiw1RwcMN33Dnaw3F-128">
          <mxGeometry x="250" y="644" width="76" height="28" as="geometry" />
        </mxCell>
        <mxCell id="GKsSiw1RwcMN33Dnaw3F-165" style="vsdxID=251;fillColor=none;gradientColor=none;points=[];labelBackgroundColor=none;rounded=0;strokeColor=none;html=1;whiteSpace=wrap;" vertex="1" parent="GKsSiw1RwcMN33Dnaw3F-128">
          <mxGeometry x="343" width="234" height="675" as="geometry" />
        </mxCell>
        <mxCell id="GKsSiw1RwcMN33Dnaw3F-166" value="&lt;div style=&quot;font-size: 1px&quot;&gt;&lt;font style=&quot;font-size:11.29px;font-family:SimSun;color:#000000;direction:ltr;letter-spacing:0px;line-height:120%;opacity:1&quot;&gt;激光雷达、环境相机、惯组&lt;br/&gt;同步板、脉冲编码器、综合里程定位&lt;br/&gt;&lt;/font&gt;&lt;/div&gt;" style="verticalAlign=middle;align=center;overflow=width;vsdxID=127;fillColor=#FFFFFF;gradientColor=none;shape=stencil(nZBLDoAgDERP0z3SIyjew0SURgSD+Lu9kMZoXLhwN9O+tukAlrNpJg1SzDH4QW/URgNYgZTkjA4UkwJUgGXng+6DX1zLfmoymdXo17xh5zmRJ6Q42BWCfc2oJfdAr+Yv+AP9Cb7OJ3H/2JG1HNGz/84klThPVCc=);dashed=1;dashPattern=2.00 2.00;points=[[1,0.5,0],[0.5,0,0],[0.5,0.5,0],[0.5,0.5,0]];labelBackgroundColor=none;rounded=0;html=1;whiteSpace=wrap;" vertex="1" parent="GKsSiw1RwcMN33Dnaw3F-165">
          <mxGeometry x="1" width="231" height="34" as="geometry" />
        </mxCell>
        <mxCell id="GKsSiw1RwcMN33Dnaw3F-167" value="&lt;div style=&quot;font-size: 1px&quot;&gt;&lt;font style=&quot;font-size:11.29px;font-family:SimSun;color:#000000;direction:ltr;letter-spacing:0px;line-height:120%;opacity:1&quot;&gt;截面数据处理展示&lt;br/&gt;里程定位数据处理&lt;br/&gt;&lt;/font&gt;&lt;/div&gt;" style="verticalAlign=middle;align=center;overflow=width;vsdxID=129;fillColor=#FFFFFF;gradientColor=none;shape=stencil(nZBLDoAgDERP0z3SIyjew0SURgSD+Lu9kMZoXLhwN9O+tukAlrNpJg1SzDH4QW/URgNYgZTkjA4UkwJUgGXng+6DX1zLfmoymdXo17xh5zmRJ6Q42BWCfc2oJfdAr+Yv+AP9Cb7OJ3H/2JG1HNGz/84klThPVCc=);dashed=1;dashPattern=2.00 2.00;points=[[1,0.5,0],[0.5,0,0],[0.5,0.5,0],[0.5,0.5,0]];labelBackgroundColor=none;rounded=0;html=1;whiteSpace=wrap;" vertex="1" parent="GKsSiw1RwcMN33Dnaw3F-165">
          <mxGeometry x="1" y="40" width="231" height="34" as="geometry" />
        </mxCell>
        <mxCell id="GKsSiw1RwcMN33Dnaw3F-168" value="&lt;div style=&quot;font-size: 1px&quot;&gt;&lt;font style=&quot;font-size:11.29px;font-family:SimSun;color:#000000;direction:ltr;letter-spacing:0px;line-height:120%;opacity:1&quot;&gt;截面数据、图形数据、高精惯组数据、GNSS数据、脉冲编码器数据、综合里程定位数据&lt;br/&gt;&lt;/font&gt;&lt;/div&gt;" style="verticalAlign=middle;align=center;overflow=width;vsdxID=131;fillColor=#FFFFFF;gradientColor=none;shape=stencil(nZBLDoAgDERP0z3SIyjew0SURgSD+Lu9kMZoXLhwN9O+tukAlrNpJg1SzDH4QW/URgNYgZTkjA4UkwJUgGXng+6DX1zLfmoymdXo17xh5zmRJ6Q42BWCfc2oJfdAr+Yv+AP9Cb7OJ3H/2JG1HNGz/84klThPVCc=);dashed=1;dashPattern=2.00 2.00;points=[[1,0.5,0],[0.5,0,0],[0.5,0.5,0],[0.5,0.5,0]];labelBackgroundColor=none;rounded=0;html=1;whiteSpace=wrap;" vertex="1" parent="GKsSiw1RwcMN33Dnaw3F-165">
          <mxGeometry x="1" y="80" width="231" height="34" as="geometry" />
        </mxCell>
        <mxCell id="GKsSiw1RwcMN33Dnaw3F-169" value="&lt;div style=&quot;font-size: 1px&quot;&gt;&lt;font style=&quot;font-size:11.29px;font-family:SimSun;color:#000000;direction:ltr;letter-spacing:0px;line-height:120%;opacity:1&quot;&gt;截面预览、图形预览、定位模组波形&lt;br/&gt;&lt;/font&gt;&lt;/div&gt;" style="verticalAlign=middle;align=center;overflow=width;vsdxID=134;fillColor=#FFFFFF;gradientColor=none;shape=stencil(nZBLDoAgDERP0z3SIyjew0SURgSD+Lu9kMZoXLhwN9O+tukAlrNpJg1SzDH4QW/URgNYgZTkjA4UkwJUgGXng+6DX1zLfmoymdXo17xh5zmRJ6Q42BWCfc2oJfdAr+Yv+AP9Cb7OJ3H/2JG1HNGz/84klThPVCc=);dashed=1;dashPattern=2.00 2.00;points=[[1,0.5,0],[0.5,0,0],[0.5,0.5,0],[0.5,0.5,0]];labelBackgroundColor=none;rounded=0;html=1;whiteSpace=wrap;" vertex="1" parent="GKsSiw1RwcMN33Dnaw3F-165">
          <mxGeometry x="1" y="123" width="231" height="28" as="geometry" />
        </mxCell>
        <mxCell id="GKsSiw1RwcMN33Dnaw3F-170" value="&lt;div style=&quot;font-size: 1px&quot;&gt;&lt;font style=&quot;font-size:11.29px;font-family:SimSun;color:#000000;direction:ltr;letter-spacing:0px;line-height:120%;opacity:1&quot;&gt;开始/结束采集、区段采集&lt;br/&gt;更换文件、模式切换&lt;br/&gt;&lt;/font&gt;&lt;/div&gt;" style="verticalAlign=middle;align=center;overflow=width;vsdxID=137;fillColor=#FFFFFF;gradientColor=none;shape=stencil(nZBLDoAgDERP0z3SIyjew0SURgSD+Lu9kMZoXLhwN9O+tukAlrNpJg1SzDH4QW/URgNYgZTkjA4UkwJUgGXng+6DX1zLfmoymdXo17xh5zmRJ6Q42BWCfc2oJfdAr+Yv+AP9Cb7OJ3H/2JG1HNGz/84klThPVCc=);dashed=1;dashPattern=2.00 2.00;strokeColor=#000000;points=[[1,0.5,0],[0.5,0,0],[0.5,0.5,0],[0.5,0.5,0]];labelBackgroundColor=none;rounded=0;html=1;whiteSpace=wrap;" vertex="1" parent="GKsSiw1RwcMN33Dnaw3F-165">
          <mxGeometry x="1" y="157" width="231" height="34" as="geometry" />
        </mxCell>
        <mxCell id="GKsSiw1RwcMN33Dnaw3F-171" value="&lt;div style=&quot;font-size: 1px&quot;&gt;&lt;font style=&quot;font-size:11.29px;font-family:SimSun;color:#000000;direction:ltr;letter-spacing:0px;line-height:120%;opacity:1&quot;&gt;里程参数、检测信息&lt;br/&gt;&lt;/font&gt;&lt;/div&gt;" style="verticalAlign=middle;align=center;overflow=width;vsdxID=139;fillColor=#FFFFFF;gradientColor=none;shape=stencil(nZBLDoAgDERP0z3SIyjew0SURgSD+Lu9kMZoXLhwN9O+tukAlrNpJg1SzDH4QW/URgNYgZTkjA4UkwJUgGXng+6DX1zLfmoymdXo17xh5zmRJ6Q42BWCfc2oJfdAr+Yv+AP9Cb7OJ3H/2JG1HNGz/84klThPVCc=);dashed=1;dashPattern=2.00 2.00;strokeColor=#000000;points=[[1,0.5,0],[0.5,0,0],[0.5,0.5,0],[0.5,0.5,0]];labelBackgroundColor=none;rounded=0;html=1;whiteSpace=wrap;" vertex="1" parent="GKsSiw1RwcMN33Dnaw3F-165">
          <mxGeometry x="1" y="197" width="231" height="34" as="geometry" />
        </mxCell>
        <mxCell id="GKsSiw1RwcMN33Dnaw3F-172" value="&lt;div style=&quot;font-size: 1px&quot;&gt;&lt;font style=&quot;font-size:11.29px;font-family:SimSun;color:#000000;direction:ltr;letter-spacing:0px;line-height:120%;opacity:1&quot;&gt;检测模式、里程信息线路信息&lt;br/&gt;&lt;/font&gt;&lt;/div&gt;" style="verticalAlign=middle;align=center;overflow=width;vsdxID=141;fillColor=#FFFFFF;gradientColor=none;shape=stencil(nZBLDoAgDERP0z3SIyjew0SURgSD+Lu9kMZoXLhwN9O+tukAlrNpJg1SzDH4QW/URgNYgZTkjA4UkwJUgGXng+6DX1zLfmoymdXo17xh5zmRJ6Q42BWCfc2oJfdAr+Yv+AP9Cb7OJ3H/2JG1HNGz/84klThPVCc=);dashed=1;dashPattern=2.00 2.00;strokeColor=#000000;points=[[1,0.5,0],[0.5,0,0],[0.5,0.5,0],[0.5,0.5,0]];labelBackgroundColor=none;rounded=0;html=1;whiteSpace=wrap;" vertex="1" parent="GKsSiw1RwcMN33Dnaw3F-165">
          <mxGeometry x="1" y="241" width="231" height="34" as="geometry" />
        </mxCell>
        <mxCell id="GKsSiw1RwcMN33Dnaw3F-173" value="&lt;div style=&quot;font-size: 1px&quot;&gt;&lt;font style=&quot;font-size:11.29px;font-family:SimSun;color:#000000;direction:ltr;letter-spacing:0px;line-height:120%;opacity:1&quot;&gt;激光雷达设备、相机设备&lt;br/&gt;里程定位模组设备&lt;br/&gt;&lt;/font&gt;&lt;/div&gt;" style="verticalAlign=middle;align=center;overflow=width;vsdxID=143;fillColor=#FFFFFF;gradientColor=none;shape=stencil(nZBLDoAgDERP0z3SIyjew0SURgSD+Lu9kMZoXLhwN9O+tukAlrNpJg1SzDH4QW/URgNYgZTkjA4UkwJUgGXng+6DX1zLfmoymdXo17xh5zmRJ6Q42BWCfc2oJfdAr+Yv+AP9Cb7OJ3H/2JG1HNGz/84klThPVCc=);dashed=1;dashPattern=2.00 2.00;strokeColor=#000000;points=[[1,0.5,0],[0.5,0,0],[0.5,0.5,0],[0.5,0.5,0]];labelBackgroundColor=none;rounded=0;html=1;whiteSpace=wrap;" vertex="1" parent="GKsSiw1RwcMN33Dnaw3F-165">
          <mxGeometry x="1" y="282" width="231" height="34" as="geometry" />
        </mxCell>
        <mxCell id="GKsSiw1RwcMN33Dnaw3F-174" value="&lt;div style=&quot;font-size: 1px&quot;&gt;&lt;font style=&quot;font-size:11.29px;font-family:SimSun;color:#000000;direction:ltr;letter-spacing:0px;line-height:120%;opacity:1&quot;&gt;智控系统、数据归集、综合里程&lt;br/&gt;&lt;/font&gt;&lt;/div&gt;" style="verticalAlign=middle;align=center;overflow=width;vsdxID=144;fillColor=#FFFFFF;gradientColor=none;shape=stencil(nZBLDoAgDERP0z3SIyjew0SURgSD+Lu9kMZoXLhwN9O+tukAlrNpJg1SzDH4QW/URgNYgZTkjA4UkwJUgGXng+6DX1zLfmoymdXo17xh5zmRJ6Q42BWCfc2oJfdAr+Yv+AP9Cb7OJ3H/2JG1HNGz/84klThPVCc=);dashed=1;dashPattern=2.00 2.00;strokeColor=#000000;points=[[1,0.5,0],[0.5,0,0],[0.5,0.5,0],[0.5,0.5,0]];labelBackgroundColor=none;rounded=0;html=1;whiteSpace=wrap;" vertex="1" parent="GKsSiw1RwcMN33Dnaw3F-165">
          <mxGeometry x="1" y="325" width="231" height="34" as="geometry" />
        </mxCell>
        <mxCell id="GKsSiw1RwcMN33Dnaw3F-175" value="&lt;div style=&quot;font-size: 1px&quot;&gt;&lt;font style=&quot;font-size:11.29px;font-family:SimSun;color:#000000;direction:ltr;letter-spacing:0px;line-height:120%;opacity:1&quot;&gt;系统操作日志、状态变化日志&lt;br/&gt;&lt;/font&gt;&lt;/div&gt;" style="verticalAlign=middle;align=center;overflow=width;vsdxID=148;fillColor=#FFFFFF;gradientColor=none;shape=stencil(nZBLDoAgDERP0z3SIyjew0SURgSD+Lu9kMZoXLhwN9O+tukAlrNpJg1SzDH4QW/URgNYgZTkjA4UkwJUgGXng+6DX1zLfmoymdXo17xh5zmRJ6Q42BWCfc2oJfdAr+Yv+AP9Cb7OJ3H/2JG1HNGz/84klThPVCc=);dashed=1;dashPattern=2.00 2.00;strokeColor=#000000;points=[[1,0.5,0],[0.5,0,0],[0.5,0.5,0],[0.5,0.5,0]];labelBackgroundColor=none;rounded=0;html=1;whiteSpace=wrap;" vertex="1" parent="GKsSiw1RwcMN33Dnaw3F-165">
          <mxGeometry x="1" y="366" width="231" height="34" as="geometry" />
        </mxCell>
        <mxCell id="GKsSiw1RwcMN33Dnaw3F-176" value="&lt;div style=&quot;font-size: 1px&quot;&gt;&lt;font style=&quot;font-size:11.29px;font-family:SimSun;color:#000000;direction:ltr;letter-spacing:0px;line-height:120%;opacity:1&quot;&gt;控制开始/停止采集&lt;br/&gt;配置采集信息&lt;br/&gt;&lt;/font&gt;&lt;/div&gt;" style="verticalAlign=middle;align=center;overflow=width;vsdxID=152;fillColor=#FFFFFF;gradientColor=none;shape=stencil(nZBLDoAgDERP0z3SIyjew0SURgSD+Lu9kMZoXLhwN9O+tukAlrNpJg1SzDH4QW/URgNYgZTkjA4UkwJUgGXng+6DX1zLfmoymdXo17xh5zmRJ6Q42BWCfc2oJfdAr+Yv+AP9Cb7OJ3H/2JG1HNGz/84klThPVCc=);dashed=1;dashPattern=2.00 2.00;strokeColor=#000000;points=[[1,0.5,0],[0.5,0,0],[0.5,0.5,0],[0.5,0.5,0]];labelBackgroundColor=none;rounded=0;html=1;whiteSpace=wrap;" vertex="1" parent="GKsSiw1RwcMN33Dnaw3F-165">
          <mxGeometry y="410" width="232" height="34" as="geometry" />
        </mxCell>
        <mxCell id="GKsSiw1RwcMN33Dnaw3F-177" value="&lt;div style=&quot;font-size: 1px&quot;&gt;&lt;font style=&quot;font-size:11.29px;font-family:SimSun;color:#000000;direction:ltr;letter-spacing:0px;line-height:120%;opacity:1&quot;&gt;对数据分类归集&lt;br/&gt;&lt;/font&gt;&lt;/div&gt;" style="verticalAlign=middle;align=center;overflow=width;vsdxID=154;fillColor=#FFFFFF;gradientColor=none;shape=stencil(nZBLDoAgDERP0z3SIyjew0SURgSD+Lu9kMZoXLhwN9O+tukAlrNpJg1SzDH4QW/URgNYgZTkjA4UkwJUgGXng+6DX1zLfmoymdXo17xh5zmRJ6Q42BWCfc2oJfdAr+Yv+AP9Cb7OJ3H/2JG1HNGz/84klThPVCc=);dashed=1;dashPattern=2.00 2.00;strokeColor=#000000;points=[[1,0.5,0],[0.5,0,0],[0.5,0.5,0],[0.5,0.5,0]];labelBackgroundColor=none;rounded=0;html=1;whiteSpace=wrap;" vertex="1" parent="GKsSiw1RwcMN33Dnaw3F-165">
          <mxGeometry x="1" y="454" width="232" height="34" as="geometry" />
        </mxCell>
        <mxCell id="GKsSiw1RwcMN33Dnaw3F-178" value="&lt;div style=&quot;font-size: 1px&quot;&gt;&lt;font style=&quot;font-size:11.29px;font-family:SimSun;color:#000000;direction:ltr;letter-spacing:0px;line-height:120%;opacity:1&quot;&gt;对里程进行修正&lt;br/&gt;&lt;/font&gt;&lt;/div&gt;" style="verticalAlign=middle;align=center;overflow=width;vsdxID=156;fillColor=#FFFFFF;gradientColor=none;shape=stencil(nZBLDoAgDERP0z3SIyjew0SURgSD+Lu9kMZoXLhwN9O+tukAlrNpJg1SzDH4QW/URgNYgZTkjA4UkwJUgGXng+6DX1zLfmoymdXo17xh5zmRJ6Q42BWCfc2oJfdAr+Yv+AP9Cb7OJ3H/2JG1HNGz/84klThPVCc=);dashed=1;dashPattern=2.00 2.00;strokeColor=#000000;points=[[1,0.5,0],[0.5,0,0],[0.5,0.5,0],[0.5,0.5,0]];labelBackgroundColor=none;rounded=0;html=1;whiteSpace=wrap;" vertex="1" parent="GKsSiw1RwcMN33Dnaw3F-165">
          <mxGeometry x="1" y="497" width="232" height="34" as="geometry" />
        </mxCell>
        <mxCell id="GKsSiw1RwcMN33Dnaw3F-179" value="&lt;div style=&quot;font-size: 1px&quot;&gt;&lt;font style=&quot;font-size:11.29px;font-family:SimSun;color:#000000;direction:ltr;letter-spacing:0px;line-height:120%;opacity:1&quot;&gt;设备增删改、设备配置&lt;br/&gt;&lt;/font&gt;&lt;/div&gt;" style="verticalAlign=middle;align=center;overflow=width;vsdxID=238;fillColor=#FFFFFF;gradientColor=none;shape=stencil(nZBLDoAgDERP0z3SIyjew0SURgSD+Lu9kMZoXLhwN9O+tukAlrNpJg1SzDH4QW/URgNYgZTkjA4UkwJUgGXng+6DX1zLfmoymdXo17xh5zmRJ6Q42BWCfc2oJfdAr+Yv+AP9Cb7OJ3H/2JG1HNGz/84klThPVCc=);dashed=1;dashPattern=2.00 2.00;strokeColor=#000000;points=[[1,0.5,0],[0.5,0,0],[0.5,0.5,0],[0.5,0.5,0]];labelBackgroundColor=none;rounded=0;html=1;whiteSpace=wrap;" vertex="1" parent="GKsSiw1RwcMN33Dnaw3F-165">
          <mxGeometry x="1" y="546" width="232" height="34" as="geometry" />
        </mxCell>
        <mxCell id="GKsSiw1RwcMN33Dnaw3F-180" value="&lt;div style=&quot;font-size: 1px&quot;&gt;&lt;font style=&quot;font-size:11.29px;font-family:SimSun;color:#000000;direction:ltr;letter-spacing:0px;line-height:120%;opacity:1&quot;&gt;标定导入导出&lt;br/&gt;&lt;/font&gt;&lt;/div&gt;" style="verticalAlign=middle;align=center;overflow=width;vsdxID=243;fillColor=#FFFFFF;gradientColor=none;shape=stencil(nZBLDoAgDERP0z3SIyjew0SURgSD+Lu9kMZoXLhwN9O+tukAlrNpJg1SzDH4QW/URgNYgZTkjA4UkwJUgGXng+6DX1zLfmoymdXo17xh5zmRJ6Q42BWCfc2oJfdAr+Yv+AP9Cb7OJ3H/2JG1HNGz/84klThPVCc=);dashed=1;dashPattern=2.00 2.00;strokeColor=#000000;points=[[1,0.5,0],[0.5,0,0],[0.5,0.5,0],[0.5,0.5,0]];labelBackgroundColor=none;rounded=0;html=1;whiteSpace=wrap;" vertex="1" parent="GKsSiw1RwcMN33Dnaw3F-165">
          <mxGeometry x="1" y="593" width="231" height="34" as="geometry" />
        </mxCell>
        <mxCell id="GKsSiw1RwcMN33Dnaw3F-181" value="&lt;div style=&quot;font-size: 1px&quot;&gt;&lt;font style=&quot;font-size:11.29px;font-family:SimSun;color:#000000;direction:ltr;letter-spacing:0px;line-height:120%;opacity:1&quot;&gt;系统配置、数据字典&lt;br/&gt;&lt;/font&gt;&lt;/div&gt;" style="verticalAlign=middle;align=center;overflow=width;vsdxID=245;fillColor=#FFFFFF;gradientColor=none;shape=stencil(nZBLDoAgDERP0z3SIyjew0SURgSD+Lu9kMZoXLhwN9O+tukAlrNpJg1SzDH4QW/URgNYgZTkjA4UkwJUgGXng+6DX1zLfmoymdXo17xh5zmRJ6Q42BWCfc2oJfdAr+Yv+AP9Cb7OJ3H/2JG1HNGz/84klThPVCc=);dashed=1;dashPattern=2.00 2.00;strokeColor=#000000;points=[[1,0.5,0],[0.5,0,0],[0.5,0.5,0],[0.5,0.5,0]];labelBackgroundColor=none;rounded=0;html=1;whiteSpace=wrap;" vertex="1" parent="GKsSiw1RwcMN33Dnaw3F-165">
          <mxGeometry x="1" y="641" width="232" height="34" as="geometry" />
        </mxCell>
        <mxCell id="GKsSiw1RwcMN33Dnaw3F-182" vertex="1" parent="GKsSiw1RwcMN33Dnaw3F-128">
          <mxGeometry x="117" y="321" as="geometry" />
        </mxCell>
        <UserObject label="" tags="连接线" id="GKsSiw1RwcMN33Dnaw3F-183">
          <mxCell style="vsdxID=38;edgeStyle=none;startArrow=none;endArrow=none;startSize=9;endSize=9;spacingTop=0;spacingBottom=0;spacingLeft=0;spacingRight=0;verticalAlign=middle;html=1;labelBackgroundColor=#ffffff;rounded=0;exitX=1.024390243902439;exitY=0.5;exitDx=0;exitDy=0;exitPerimeter=0;" edge="1" parent="GKsSiw1RwcMN33Dnaw3F-128" source="GKsSiw1RwcMN33Dnaw3F-129" target="GKsSiw1RwcMN33Dnaw3F-182">
            <mxGeometry relative="1" as="geometry">
              <mxPoint x="3" y="-1" as="offset" />
              <Array as="points">
                <mxPoint x="117.44" y="407" />
              </Array>
            </mxGeometry>
          </mxCell>
        </UserObject>
        <mxCell id="GKsSiw1RwcMN33Dnaw3F-184" vertex="1" parent="GKsSiw1RwcMN33Dnaw3F-128">
          <mxGeometry x="117" y="421" as="geometry" />
        </mxCell>
        <mxCell id="GKsSiw1RwcMN33Dnaw3F-186" vertex="1" parent="GKsSiw1RwcMN33Dnaw3F-128">
          <mxGeometry x="117" y="321" as="geometry" />
        </mxCell>
        <UserObject label="" tags="连接线" id="GKsSiw1RwcMN33Dnaw3F-187">
          <mxCell style="vsdxID=36;edgeStyle=none;startArrow=none;endArrow=none;startSize=9;endSize=9;spacingTop=0;spacingBottom=0;spacingLeft=0;spacingRight=0;verticalAlign=middle;html=1;labelBackgroundColor=#ffffff;rounded=0;exitX=0;exitY=0.5185185185185185;exitDx=0;exitDy=0;exitPerimeter=0;" edge="1" parent="GKsSiw1RwcMN33Dnaw3F-128" source="GKsSiw1RwcMN33Dnaw3F-142" target="GKsSiw1RwcMN33Dnaw3F-186">
            <mxGeometry relative="1" as="geometry">
              <mxPoint as="offset" />
              <Array as="points">
                <mxPoint x="117.58" y="471" />
              </Array>
            </mxGeometry>
          </mxCell>
        </UserObject>
        <mxCell id="GKsSiw1RwcMN33Dnaw3F-188" vertex="1" parent="GKsSiw1RwcMN33Dnaw3F-128">
          <mxGeometry x="117" y="189" as="geometry" />
        </mxCell>
        <UserObject label="" tags="连接线" id="GKsSiw1RwcMN33Dnaw3F-189">
          <mxCell style="vsdxID=35;edgeStyle=none;startArrow=none;endArrow=none;startSize=9;endSize=9;spacingTop=0;spacingBottom=0;spacingLeft=0;spacingRight=0;verticalAlign=middle;html=1;labelBackgroundColor=#ffffff;rounded=0;exitX=0;exitY=0.52;exitDx=0;exitDy=0;exitPerimeter=0;" edge="1" parent="GKsSiw1RwcMN33Dnaw3F-128" source="GKsSiw1RwcMN33Dnaw3F-131" target="GKsSiw1RwcMN33Dnaw3F-188">
            <mxGeometry relative="1" as="geometry">
              <mxPoint as="offset" />
              <Array as="points">
                <mxPoint x="117.13" y="314" />
              </Array>
            </mxGeometry>
          </mxCell>
        </UserObject>
        <UserObject label="" tags="连接线" id="GKsSiw1RwcMN33Dnaw3F-190">
          <mxCell style="vsdxID=34;edgeStyle=none;startArrow=none;endArrow=none;startSize=9;endSize=9;spacingTop=0;spacingBottom=0;spacingLeft=0;spacingRight=0;verticalAlign=middle;html=1;labelBackgroundColor=#ffffff;rounded=0;exitX=0;exitY=0.5;exitDx=0;exitDy=0;exitPerimeter=0;entryX=0;entryY=0.5;entryDx=0;entryDy=0;entryPerimeter=0;" edge="1" parent="GKsSiw1RwcMN33Dnaw3F-128" source="GKsSiw1RwcMN33Dnaw3F-145" target="GKsSiw1RwcMN33Dnaw3F-156">
            <mxGeometry relative="1" as="geometry">
              <mxPoint x="10" y="-1" as="offset" />
              <Array as="points">
                <mxPoint x="117.13" y="77" />
                <mxPoint x="117.13" y="188.71" />
              </Array>
            </mxGeometry>
          </mxCell>
        </UserObject>
        <UserObject label="" tags="连接线" id="GKsSiw1RwcMN33Dnaw3F-194">
          <mxCell style="vsdxID=128;edgeStyle=none;startArrow=none;endArrow=none;startSize=9;endSize=9;spacingTop=0;spacingBottom=0;spacingLeft=0;spacingRight=0;verticalAlign=middle;html=1;labelBackgroundColor=#ffffff;rounded=0;exitX=1.013157894736842;exitY=0.5;exitDx=0;exitDy=0;exitPerimeter=0;entryX=0;entryY=0.47058823529411764;entryDx=0;entryDy=0;entryPerimeter=0;" edge="1" parent="GKsSiw1RwcMN33Dnaw3F-128" source="GKsSiw1RwcMN33Dnaw3F-147" target="GKsSiw1RwcMN33Dnaw3F-166">
            <mxGeometry relative="1" as="geometry">
              <mxPoint x="1" as="offset" />
              <Array as="points">
                <mxPoint x="334.5" y="16" />
                <mxPoint x="334.5" y="15.94" />
              </Array>
            </mxGeometry>
          </mxCell>
        </UserObject>
        <UserObject label="" tags="连接线" id="GKsSiw1RwcMN33Dnaw3F-195">
          <mxCell style="vsdxID=130;edgeStyle=none;startArrow=none;endArrow=none;startSize=9;endSize=9;spacingTop=0;spacingBottom=0;spacingLeft=0;spacingRight=0;verticalAlign=middle;html=1;labelBackgroundColor=#ffffff;rounded=0;exitX=1.013157894736842;exitY=0.5357142857142857;exitDx=0;exitDy=0;exitPerimeter=0;entryX=0;entryY=0.5;entryDx=0;entryDy=0;entryPerimeter=0;" edge="1" parent="GKsSiw1RwcMN33Dnaw3F-128" source="GKsSiw1RwcMN33Dnaw3F-148" target="GKsSiw1RwcMN33Dnaw3F-167">
            <mxGeometry relative="1" as="geometry">
              <mxPoint x="1" as="offset" />
              <Array as="points">
                <mxPoint x="334.5" y="57" />
                <mxPoint x="334.5" y="57.22" />
              </Array>
            </mxGeometry>
          </mxCell>
        </UserObject>
        <UserObject label="" tags="连接线" id="GKsSiw1RwcMN33Dnaw3F-196">
          <mxCell style="vsdxID=138;edgeStyle=none;startArrow=none;endArrow=none;startSize=9;endSize=9;spacingTop=0;spacingBottom=0;spacingLeft=0;spacingRight=0;verticalAlign=middle;html=1;labelBackgroundColor=#ffffff;rounded=0;exitX=1.013157894736842;exitY=0.5;exitDx=0;exitDy=0;exitPerimeter=0;entryX=0.004329004329004329;entryY=0.47058823529411764;entryDx=0;entryDy=0;entryPerimeter=0;" edge="1" parent="GKsSiw1RwcMN33Dnaw3F-128" source="GKsSiw1RwcMN33Dnaw3F-158" target="GKsSiw1RwcMN33Dnaw3F-170">
            <mxGeometry relative="1" as="geometry">
              <mxPoint x="1" as="offset" />
              <Array as="points">
                <mxPoint x="334.5" y="173" />
                <mxPoint x="334.5" y="172.91" />
              </Array>
            </mxGeometry>
          </mxCell>
        </UserObject>
        <UserObject label="" tags="连接线" id="GKsSiw1RwcMN33Dnaw3F-197">
          <mxCell style="vsdxID=140;edgeStyle=none;startArrow=none;endArrow=none;startSize=9;endSize=9;spacingTop=0;spacingBottom=0;spacingLeft=0;spacingRight=0;verticalAlign=middle;html=1;labelBackgroundColor=#ffffff;rounded=0;exitX=1.013157894736842;exitY=0.55;exitDx=0;exitDy=0;exitPerimeter=0;entryX=0.004329004329004329;entryY=0.5;entryDx=0;entryDy=0;entryPerimeter=0;" edge="1" parent="GKsSiw1RwcMN33Dnaw3F-128" source="GKsSiw1RwcMN33Dnaw3F-159" target="GKsSiw1RwcMN33Dnaw3F-171">
            <mxGeometry relative="1" as="geometry">
              <mxPoint x="1" as="offset" />
              <Array as="points">
                <mxPoint x="334.5" y="214" />
                <mxPoint x="334.5" y="214.06" />
              </Array>
            </mxGeometry>
          </mxCell>
        </UserObject>
        <UserObject label="" tags="连接线" id="GKsSiw1RwcMN33Dnaw3F-198">
          <mxCell style="vsdxID=142;edgeStyle=none;startArrow=none;endArrow=none;startSize=9;endSize=9;spacingTop=0;spacingBottom=0;spacingLeft=0;spacingRight=0;verticalAlign=middle;html=1;labelBackgroundColor=#ffffff;rounded=0;exitX=1.013157894736842;exitY=0.52;exitDx=0;exitDy=0;exitPerimeter=0;entryX=0;entryY=0.5;entryDx=0;entryDy=0;entryPerimeter=0;" edge="1" parent="GKsSiw1RwcMN33Dnaw3F-128" source="GKsSiw1RwcMN33Dnaw3F-133" target="GKsSiw1RwcMN33Dnaw3F-172">
            <mxGeometry relative="1" as="geometry">
              <mxPoint x="1" as="offset" />
              <Array as="points">
                <mxPoint x="334.5" y="258" />
                <mxPoint x="334.5" y="258.05" />
              </Array>
            </mxGeometry>
          </mxCell>
        </UserObject>
        <UserObject label="" tags="连接线" id="GKsSiw1RwcMN33Dnaw3F-199">
          <mxCell style="vsdxID=151;edgeStyle=none;startArrow=none;endArrow=none;startSize=9;endSize=9;spacingTop=0;spacingBottom=0;spacingLeft=0;spacingRight=0;verticalAlign=middle;html=1;labelBackgroundColor=#ffffff;rounded=0;exitX=1.013157894736842;exitY=0.48;exitDx=0;exitDy=0;exitPerimeter=0;entryX=0.004329004329004329;entryY=0.5;entryDx=0;entryDy=0;entryPerimeter=0;" edge="1" parent="GKsSiw1RwcMN33Dnaw3F-128" source="GKsSiw1RwcMN33Dnaw3F-136" target="GKsSiw1RwcMN33Dnaw3F-175">
            <mxGeometry relative="1" as="geometry">
              <mxPoint x="1" as="offset" />
              <Array as="points">
                <mxPoint x="333.5" y="383" />
                <mxPoint x="333.5" y="382.76" />
              </Array>
            </mxGeometry>
          </mxCell>
        </UserObject>
        <UserObject label="" tags="连接线" id="GKsSiw1RwcMN33Dnaw3F-200">
          <mxCell style="vsdxID=153;edgeStyle=none;startArrow=none;endArrow=none;startSize=9;endSize=9;spacingTop=0;spacingBottom=0;spacingLeft=0;spacingRight=0;verticalAlign=middle;html=1;labelBackgroundColor=#ffffff;rounded=0;exitX=0;exitY=0.5;exitDx=0;exitDy=0;exitPerimeter=0;entryX=1;entryY=0.5357142857142857;entryDx=0;entryDy=0;entryPerimeter=0;" edge="1" parent="GKsSiw1RwcMN33Dnaw3F-128" source="GKsSiw1RwcMN33Dnaw3F-176" target="GKsSiw1RwcMN33Dnaw3F-139">
            <mxGeometry relative="1" as="geometry">
              <mxPoint x="-2" as="offset" />
              <Array as="points">
                <mxPoint x="335.5" y="427" />
                <mxPoint x="335.5" y="426.93" />
              </Array>
            </mxGeometry>
          </mxCell>
        </UserObject>
        <UserObject label="" tags="连接线" id="GKsSiw1RwcMN33Dnaw3F-202">
          <mxCell style="vsdxID=248;edgeStyle=none;startArrow=none;endArrow=none;startSize=9;endSize=9;spacingTop=0;spacingBottom=0;spacingLeft=0;spacingRight=0;verticalAlign=middle;html=1;labelBackgroundColor=#ffffff;rounded=0;exitX=0;exitY=0.4642857142857143;exitDx=0;exitDy=0;exitPerimeter=0;entryX=0;entryY=0.5;entryDx=0;entryDy=0;entryPerimeter=0;" edge="1" parent="GKsSiw1RwcMN33Dnaw3F-128" source="GKsSiw1RwcMN33Dnaw3F-162" target="GKsSiw1RwcMN33Dnaw3F-163">
            <mxGeometry relative="1" as="geometry">
              <mxPoint x="10" y="-1" as="offset" />
              <Array as="points">
                <mxPoint x="236" y="562" />
                <mxPoint x="236" y="609.57" />
              </Array>
            </mxGeometry>
          </mxCell>
        </UserObject>
        <UserObject label="" tags="连接线" id="GKsSiw1RwcMN33Dnaw3F-203">
          <mxCell style="vsdxID=249;edgeStyle=none;startArrow=none;endArrow=none;startSize=9;endSize=9;spacingTop=0;spacingBottom=0;spacingLeft=0;spacingRight=0;verticalAlign=middle;html=1;labelBackgroundColor=#ffffff;rounded=0;exitX=0;exitY=0.4642857142857143;exitDx=0;exitDy=0;exitPerimeter=0;entryX=0;entryY=0.5;entryDx=0;entryDy=0;entryPerimeter=0;" edge="1" parent="GKsSiw1RwcMN33Dnaw3F-128" source="GKsSiw1RwcMN33Dnaw3F-164" target="GKsSiw1RwcMN33Dnaw3F-163">
            <mxGeometry relative="1" as="geometry">
              <mxPoint x="9" as="offset" />
              <Array as="points">
                <mxPoint x="235" y="657" />
                <mxPoint x="235" y="609.57" />
              </Array>
            </mxGeometry>
          </mxCell>
        </UserObject>
        <mxCell id="GKsSiw1RwcMN33Dnaw3F-204" vertex="1" parent="GKsSiw1RwcMN33Dnaw3F-128">
          <mxGeometry x="235" y="469" as="geometry" />
        </mxCell>
        <UserObject label="" tags="连接线" id="GKsSiw1RwcMN33Dnaw3F-205">
          <mxCell style="vsdxID=250;edgeStyle=none;startArrow=none;endArrow=none;startSize=9;endSize=9;spacingTop=0;spacingBottom=0;spacingLeft=0;spacingRight=0;verticalAlign=middle;html=1;labelBackgroundColor=#ffffff;rounded=0;exitX=1;exitY=0.5185185185185185;exitDx=0;exitDy=0;exitPerimeter=0;" edge="1" parent="GKsSiw1RwcMN33Dnaw3F-128" source="GKsSiw1RwcMN33Dnaw3F-142" target="GKsSiw1RwcMN33Dnaw3F-204">
            <mxGeometry relative="1" as="geometry">
              <mxPoint x="1" as="offset" />
              <Array as="points">
                <mxPoint x="234.84" y="471" />
              </Array>
            </mxGeometry>
          </mxCell>
        </UserObject>
        <UserObject label="" tags="连接线" id="GKsSiw1RwcMN33Dnaw3F-206">
          <mxCell style="vsdxID=132;edgeStyle=none;startArrow=none;endArrow=none;startSize=9;endSize=9;spacingTop=0;spacingBottom=0;spacingLeft=0;spacingRight=0;verticalAlign=middle;html=1;labelBackgroundColor=#ffffff;rounded=0;exitX=0.004329004329004329;exitY=0.5;exitDx=0;exitDy=0;exitPerimeter=0;entryX=1.0054945054945055;entryY=0.6394557823129252;entryDx=0;entryDy=0;entryPerimeter=0;" edge="1" parent="GKsSiw1RwcMN33Dnaw3F-128" source="GKsSiw1RwcMN33Dnaw3F-168" target="GKsSiw1RwcMN33Dnaw3F-143">
            <mxGeometry relative="1" as="geometry">
              <mxPoint x="-1" as="offset" />
              <Array as="points" />
            </mxGeometry>
          </mxCell>
        </UserObject>
        <UserObject label="" tags="连接线" id="GKsSiw1RwcMN33Dnaw3F-207">
          <mxCell style="vsdxID=146;edgeStyle=none;startArrow=none;endArrow=none;startSize=9;endSize=9;spacingTop=0;spacingBottom=0;spacingLeft=0;spacingRight=0;verticalAlign=middle;html=1;labelBackgroundColor=#ffffff;rounded=0;exitX=0.004329004329004329;exitY=0.5;exitDx=0;exitDy=0;exitPerimeter=0;entryX=1.0054945054945055;entryY=0.3816793893129771;entryDx=0;entryDy=0;entryPerimeter=0;" edge="1" parent="GKsSiw1RwcMN33Dnaw3F-128" source="GKsSiw1RwcMN33Dnaw3F-173" target="GKsSiw1RwcMN33Dnaw3F-130">
            <mxGeometry relative="1" as="geometry">
              <mxPoint x="-1" as="offset" />
              <Array as="points" />
            </mxGeometry>
          </mxCell>
        </UserObject>
        <UserObject label="" tags="连接线" id="GKsSiw1RwcMN33Dnaw3F-208">
          <mxCell style="vsdxID=147;edgeStyle=none;startArrow=none;endArrow=none;startSize=9;endSize=9;spacingTop=0;spacingBottom=0;spacingLeft=0;spacingRight=0;verticalAlign=middle;html=1;labelBackgroundColor=#ffffff;rounded=0;exitX=0.004329004329004329;exitY=0.5;exitDx=0;exitDy=0;exitPerimeter=0;entryX=1.0054945054945055;entryY=0.7099236641221374;entryDx=0;entryDy=0;entryPerimeter=0;" edge="1" parent="GKsSiw1RwcMN33Dnaw3F-128" source="GKsSiw1RwcMN33Dnaw3F-174" target="GKsSiw1RwcMN33Dnaw3F-130">
            <mxGeometry relative="1" as="geometry">
              <mxPoint x="-1" as="offset" />
              <Array as="points" />
            </mxGeometry>
          </mxCell>
        </UserObject>
        <UserObject label="" tags="连接线" id="GKsSiw1RwcMN33Dnaw3F-209">
          <mxCell style="vsdxID=155;edgeStyle=none;startArrow=none;endArrow=none;startSize=9;endSize=9;spacingTop=0;spacingBottom=0;spacingLeft=0;spacingRight=0;verticalAlign=middle;html=1;labelBackgroundColor=#ffffff;rounded=0;exitX=0.004310344827586207;exitY=0.47058823529411764;exitDx=0;exitDy=0;exitPerimeter=0;entryX=1;entryY=0.4024390243902439;entryDx=0;entryDy=0;entryPerimeter=0;" edge="1" parent="GKsSiw1RwcMN33Dnaw3F-128" source="GKsSiw1RwcMN33Dnaw3F-177" target="GKsSiw1RwcMN33Dnaw3F-137">
            <mxGeometry relative="1" as="geometry">
              <mxPoint as="offset" />
              <Array as="points" />
            </mxGeometry>
          </mxCell>
        </UserObject>
        <UserObject label="" tags="连接线" id="GKsSiw1RwcMN33Dnaw3F-210">
          <mxCell style="vsdxID=157;edgeStyle=none;startArrow=none;endArrow=none;startSize=9;endSize=9;spacingTop=0;spacingBottom=0;spacingLeft=0;spacingRight=0;verticalAlign=middle;html=1;labelBackgroundColor=#ffffff;rounded=0;exitX=0.004310344827586207;exitY=0.5;exitDx=0;exitDy=0;exitPerimeter=0;entryX=1;entryY=0.9390243902439024;entryDx=0;entryDy=0;entryPerimeter=0;" edge="1" parent="GKsSiw1RwcMN33Dnaw3F-128" source="GKsSiw1RwcMN33Dnaw3F-178" target="GKsSiw1RwcMN33Dnaw3F-137">
            <mxGeometry relative="1" as="geometry">
              <mxPoint as="offset" />
              <Array as="points" />
            </mxGeometry>
          </mxCell>
        </UserObject>
        <UserObject label="" tags="连接线" id="GKsSiw1RwcMN33Dnaw3F-211">
          <mxCell style="vsdxID=242;edgeStyle=none;startArrow=none;endArrow=none;startSize=9;endSize=9;spacingTop=0;spacingBottom=0;spacingLeft=0;spacingRight=0;verticalAlign=middle;html=1;labelBackgroundColor=#ffffff;rounded=0;exitX=0.004310344827586207;exitY=0.5;exitDx=0;exitDy=0;exitPerimeter=0;entryX=1;entryY=0.4642857142857143;entryDx=0;entryDy=0;entryPerimeter=0;" edge="1" parent="GKsSiw1RwcMN33Dnaw3F-128" source="GKsSiw1RwcMN33Dnaw3F-179" target="GKsSiw1RwcMN33Dnaw3F-162">
            <mxGeometry relative="1" as="geometry">
              <mxPoint x="-2" as="offset" />
              <Array as="points">
                <mxPoint x="337.5" y="563" />
                <mxPoint x="337.5" y="562.64" />
              </Array>
            </mxGeometry>
          </mxCell>
        </UserObject>
        <UserObject label="" tags="连接线" id="GKsSiw1RwcMN33Dnaw3F-212">
          <mxCell style="vsdxID=244;edgeStyle=none;startArrow=none;endArrow=none;startSize=9;endSize=9;spacingTop=0;spacingBottom=0;spacingLeft=0;spacingRight=0;verticalAlign=middle;html=1;labelBackgroundColor=#ffffff;rounded=0;exitX=1;exitY=0.5;exitDx=0;exitDy=0;exitPerimeter=0;entryX=0.004329004329004329;entryY=0.5;entryDx=0;entryDy=0;entryPerimeter=0;" edge="1" parent="GKsSiw1RwcMN33Dnaw3F-128" source="GKsSiw1RwcMN33Dnaw3F-163" target="GKsSiw1RwcMN33Dnaw3F-180">
            <mxGeometry relative="1" as="geometry">
              <mxPoint x="1" as="offset" />
              <Array as="points">
                <mxPoint x="334.5" y="610" />
                <mxPoint x="334.5" y="610.23" />
              </Array>
            </mxGeometry>
          </mxCell>
        </UserObject>
        <UserObject label="" tags="连接线" id="GKsSiw1RwcMN33Dnaw3F-213">
          <mxCell style="vsdxID=246;edgeStyle=none;startArrow=none;endArrow=none;startSize=9;endSize=9;spacingTop=0;spacingBottom=0;spacingLeft=0;spacingRight=0;verticalAlign=middle;html=1;labelBackgroundColor=#ffffff;rounded=0;exitX=1.013157894736842;exitY=0.4642857142857143;exitDx=0;exitDy=0;exitPerimeter=0;entryX=0.004310344827586207;entryY=0.5;entryDx=0;entryDy=0;entryPerimeter=0;" edge="1" parent="GKsSiw1RwcMN33Dnaw3F-128" source="GKsSiw1RwcMN33Dnaw3F-164" target="GKsSiw1RwcMN33Dnaw3F-181">
            <mxGeometry relative="1" as="geometry">
              <mxPoint x="1" as="offset" />
              <Array as="points">
                <mxPoint x="334.5" y="657" />
                <mxPoint x="334.5" y="657.2" />
              </Array>
            </mxGeometry>
          </mxCell>
        </UserObject>
        <UserObject label="" tags="连接线" id="GKsSiw1RwcMN33Dnaw3F-214">
          <mxCell style="vsdxID=52;edgeStyle=none;startArrow=none;endArrow=none;startSize=9;endSize=9;spacingTop=0;spacingBottom=0;spacingLeft=0;spacingRight=0;verticalAlign=middle;html=1;labelBackgroundColor=#ffffff;rounded=0;" edge="1" parent="GKsSiw1RwcMN33Dnaw3F-128">
            <mxGeometry relative="1" as="geometry">
              <mxPoint x="20" as="offset" />
              <Array as="points">
                <mxPoint x="240" y="16" />
                <mxPoint x="240" y="16" />
              </Array>
              <mxPoint x="250" y="16" as="sourcePoint" />
              <mxPoint x="250" y="16" as="targetPoint" />
            </mxGeometry>
          </mxCell>
        </UserObject>
        <UserObject label="" tags="连接线" id="GKsSiw1RwcMN33Dnaw3F-185">
          <mxCell style="vsdxID=37;edgeStyle=none;startArrow=none;endArrow=none;startSize=9;endSize=9;spacingTop=0;spacingBottom=0;spacingLeft=0;spacingRight=0;verticalAlign=middle;html=1;labelBackgroundColor=#ffffff;rounded=0;exitX=0;exitY=0.5;exitDx=0;exitDy=0;exitPerimeter=0;" edge="1" parent="1" source="GKsSiw1RwcMN33Dnaw3F-127" target="GKsSiw1RwcMN33Dnaw3F-184">
            <mxGeometry relative="1" as="geometry">
              <mxPoint y="-1" as="offset" />
              <Array as="points">
                <mxPoint x="141.91" y="635" />
              </Array>
            </mxGeometry>
          </mxCell>
        </UserObject>
        <UserObject label="" tags="连接线" id="GKsSiw1RwcMN33Dnaw3F-201">
          <mxCell style="vsdxID=247;edgeStyle=none;startArrow=none;endArrow=none;startSize=9;endSize=9;spacingTop=0;spacingBottom=0;spacingLeft=0;spacingRight=0;verticalAlign=middle;html=1;labelBackgroundColor=#ffffff;rounded=0;exitX=1.013157894736842;exitY=0.5;exitDx=0;exitDy=0;exitPerimeter=0;entryX=0;entryY=0.5;entryDx=0;entryDy=0;entryPerimeter=0;" edge="1" parent="1" source="GKsSiw1RwcMN33Dnaw3F-127" target="GKsSiw1RwcMN33Dnaw3F-163">
            <mxGeometry relative="1" as="geometry">
              <mxPoint as="offset" />
              <Array as="points">
                <mxPoint x="265" y="635" />
                <mxPoint x="265" y="635" />
              </Array>
            </mxGeometry>
          </mxCell>
        </UserObject>
      </root>
    </mxGraphModel>
  </diagram>
</mxfile>
